<mxfile host="app.diagrams.net" modified="2024-06-28T10:52:14.697Z" agent="Mozilla/5.0 (Windows NT 10.0; Win64; x64) AppleWebKit/537.36 (KHTML, like Gecko) Chrome/124.0.0.0 Safari/537.36 OPR/110.0.0.0" etag="crsH0qHaSVwygEzs9dAf" version="24.6.3" type="github">
  <diagram id="CQI6WvTyXqOD8P_kqG3j" name="Pagina-1">
    <mxGraphModel dx="3531" dy="-806" grid="1" gridSize="10" guides="1" tooltips="1" connect="1" arrows="1" fold="1" page="0" pageScale="1" pageWidth="827" pageHeight="1169" background="none" math="0" shadow="0">
      <root>
        <mxCell id="0" />
        <mxCell id="1" parent="0" />
        <mxCell id="node3" value="&lt;p style=&quot;margin:0px;margin-top:4px;text-align:center;&quot;&gt;&lt;b&gt;AchievementDeck&lt;/b&gt;&lt;/p&gt;&lt;hr size=&quot;1&quot;&gt;&lt;p style=&quot;margin:0 0 0 4px;line-height:1.6;&quot;&gt;- cards : List&amp;lt;AchievementCard&lt;/p&gt;&lt;p style=&quot;margin:0 0 0 4px;line-height:1.6;&quot;&gt;- boardCards : Map&amp;lt;DeckPosition, AchievementCard&amp;gt;&lt;/p&gt;&lt;hr size=&quot;1&quot;&gt;&lt;p style=&quot;margin:0 0 0 4px;line-height:1.6;&quot;&gt;- createCards() : void&lt;br&gt;&lt;/p&gt;&lt;p style=&quot;margin:0 0 0 4px;line-height:1.6;&quot;&gt;+ AchievementDeck()&lt;/p&gt;&lt;p style=&quot;margin:0 0 0 4px;line-height:1.6;&quot;&gt;+ AchievementDeck(Boolean test)&lt;/p&gt;&lt;p style=&quot;margin:0 0 0 4px;line-height:1.6;&quot;&gt;+ shuffle() : void&lt;/p&gt;&lt;p style=&quot;margin:0 0 0 4px;line-height:1.6;&quot;&gt;+ moveCardToBoard(where_to : DeckPosition) : void&lt;/p&gt;&lt;p style=&quot;margin:0 0 0 4px;line-height:1.6;&quot;&gt;+getBoardCard() : Map&amp;lt;DeckPosition, AchievementCard&amp;gt;&lt;/p&gt;&lt;p style=&quot;margin:0 0 0 4px;line-height:1.6;&quot;&gt;+ isEmpty() : boolean&lt;/p&gt;&lt;p style=&quot;margin:0 0 0 4px;line-height:1.6;&quot;&gt;+ addCard(card : Card, position : DeckPosition) : void&lt;/p&gt;&lt;p style=&quot;margin:0 0 0 4px;line-height:1.6;&quot;&gt;+ getTopCardNoPop() : Card&lt;/p&gt;&lt;p style=&quot;margin:0 0 0 4px;line-height:1.6;&quot;&gt;+ getNumberOfCards() : int&amp;nbsp;&lt;/p&gt;" style="verticalAlign=top;align=left;overflow=fill;fontSize=14;fontFamily=Helvetica;html=1;rounded=0;shadow=0;comic=0;labelBackgroundColor=none;strokeWidth=1;fillColor=#ffe6cc;strokeColor=#d79b00;" parent="1" vertex="1">
          <mxGeometry x="964" y="3828" width="366" height="324" as="geometry" />
        </mxCell>
        <mxCell id="node41" value="&lt;p style=&quot;margin:0px;margin-top:4px;text-align:center;&quot;&gt;&lt;i&gt;&amp;lt;&amp;lt;interface&amp;gt;&amp;gt;&lt;/i&gt;&lt;br&gt;&lt;b&gt;Card&lt;/b&gt;&lt;/p&gt;&lt;hr size=&quot;1&quot;&gt;&lt;p style=&quot;margin:0 0 0 4px;line-height:1.6;&quot;&gt;+ getFace(face : Face): CardFace&lt;/p&gt;&lt;p style=&quot;margin:0 0 0 4px;line-height:1.6;&quot;&gt;+ getCornerFace( face : Face) : CornerCardFace&lt;/p&gt;" style="verticalAlign=top;align=left;overflow=fill;fontSize=14;fontFamily=Helvetica;html=1;rounded=0;shadow=0;comic=0;labelBackgroundColor=none;strokeWidth=1;fillColor=#dae8fc;strokeColor=#6c8ebf;" parent="1" vertex="1">
          <mxGeometry x="1767.5" y="5890" width="316" height="110" as="geometry" />
        </mxCell>
        <mxCell id="node31" value="&lt;p style=&quot;margin:0px;margin-top:4px;text-align:center;&quot;&gt;&lt;i&gt;&amp;lt;&amp;lt;interface&amp;gt;&amp;gt;&lt;/i&gt;&lt;br&gt;&lt;b&gt;CardFace&lt;/b&gt;&lt;/p&gt;&lt;hr size=&quot;1&quot;&gt;&lt;p style=&quot;margin:0 0 0 4px;line-height:1.6;&quot;&gt;+ getImageURI : String&lt;/p&gt;&lt;p style=&quot;margin:0 0 0 4px;line-height:1.6;&quot;&gt;+ getCornerSymbols() : Map&amp;lt;CardCorners, Symbol&amp;gt;&lt;/p&gt;&lt;p style=&quot;margin:0 0 0 4px;line-height:1.6;&quot;&gt;+ getCenterSymbols() : List&amp;lt;Symbol&amp;gt;&lt;/p&gt;&lt;p style=&quot;margin:0 0 0 4px;line-height:1.6;&quot;&gt;+ getScore() : int&lt;/p&gt;&lt;p style=&quot;margin:0 0 0 4px;line-height:1.6;&quot;&gt;+ getScoreRequirements() : Map&amp;lt;Symbol, Integer&amp;gt;&lt;/p&gt;&lt;p style=&quot;margin:0 0 0 4px;line-height:1.6;&quot;&gt;+ getPlacementRequirements() : Map&amp;lt;Symbol, Integer&amp;gt;&lt;/p&gt;&lt;p style=&quot;margin:0 0 0 4px;line-height:1.6;&quot;&gt;+ getXCoord() : int&lt;/p&gt;&lt;p style=&quot;margin:0 0 0 4px;line-height:1.6;&quot;&gt;+ getYCoord() : int&lt;/p&gt;&lt;p style=&quot;margin:0 0 0 4px;line-height:1.6;&quot;&gt;+ setPlacementTurn(placementTurn : int) : void&lt;/p&gt;&lt;p style=&quot;margin:0 0 0 4px;line-height:1.6;&quot;&gt;+ setXCoord(xCoord : int) : void&lt;/p&gt;&lt;p style=&quot;margin:0 0 0 4px;line-height:1.6;&quot;&gt;+ setYCoord(yCoord : int) : void&lt;br&gt;&lt;/p&gt;&lt;p style=&quot;margin:0 0 0 4px;line-height:1.6;&quot;&gt;+ getPlacementTurn() : int&lt;/p&gt;&lt;p style=&quot;margin:0 0 0 4px;line-height:1.6;&quot;&gt;+ getKingdom() : Symbol&lt;/p&gt;&lt;p style=&quot;margin:0 0 0 4px;line-height:1.6;&quot;&gt;&lt;br&gt;&lt;/p&gt;&lt;p style=&quot;margin:0 0 0 4px;line-height:1.6;&quot;&gt;&lt;br&gt;&lt;/p&gt;" style="verticalAlign=top;align=left;overflow=fill;fontSize=14;fontFamily=Helvetica;html=1;rounded=0;shadow=0;comic=0;labelBackgroundColor=none;strokeWidth=1;fillColor=#d5e8d4;strokeColor=#82b366;" parent="1" vertex="1">
          <mxGeometry x="2246.5" y="5770" width="430" height="350" as="geometry" />
        </mxCell>
        <mxCell id="node39" value="&lt;p style=&quot;margin:0px;margin-top:4px;text-align:center;&quot;&gt;&lt;b&gt;Chat&lt;/b&gt;&lt;/p&gt;&lt;hr size=&quot;1&quot;&gt;&lt;p style=&quot;margin:0 0 0 4px;line-height:1.6;&quot;&gt;&lt;/p&gt;&lt;p style=&quot;margin:0 0 0 4px;line-height:1.6;&quot;&gt;- messages : List&amp;lt;Message&amp;gt;&lt;/p&gt;&lt;hr size=&quot;1&quot;&gt;&lt;p style=&quot;margin:0 0 0 4px;line-height:1.6;&quot;&gt;+ Chat()&lt;/p&gt;&lt;p style=&quot;margin:0 0 0 4px;line-height:1.6;&quot;&gt;+ addMessage(message : Message) : void&lt;br&gt;+ addMessage(message : String, player : Player ) : void&lt;/p&gt;&lt;p style=&quot;margin:0 0 0 4px;line-height:1.6;&quot;&gt;+ addMessage(message : String, name : String ) : void&lt;br&gt;&lt;/p&gt;&lt;p style=&quot;margin:0 0 0 4px;line-height:1.6;&quot;&gt;+ getMessages() : List&amp;lt;Message&amp;gt;&lt;/p&gt;" style="verticalAlign=top;align=left;overflow=fill;fontSize=14;fontFamily=Helvetica;html=1;rounded=0;shadow=0;comic=0;labelBackgroundColor=none;strokeWidth=1;fillColor=#f8cecc;strokeColor=#b85450;" parent="1" vertex="1">
          <mxGeometry x="1386.25" y="5150" width="360" height="195" as="geometry" />
        </mxCell>
        <mxCell id="node33" value="&lt;p style=&quot;margin:0px;margin-top:4px;text-align:center;&quot;&gt;&lt;i&gt;&amp;lt;&amp;lt;interface&amp;gt;&amp;gt;&lt;/i&gt;&lt;br&gt;&lt;b&gt;Deckable&lt;/b&gt;&lt;/p&gt;&lt;hr size=&quot;1&quot;&gt;&lt;p style=&quot;margin:0 0 0 4px;line-height:1.6;&quot;&gt;+ addCard(card : Card, position : DeckPosition) : void&lt;br&gt;+ popCard(position :DeckPosition) : Card&lt;/p&gt;&lt;p style=&quot;margin:0 0 0 4px;line-height:1.6;&quot;&gt;+ getTopCardNoPop() : Card&lt;/p&gt;" style="verticalAlign=top;align=left;overflow=fill;fontSize=14;fontFamily=Helvetica;html=1;rounded=0;shadow=0;comic=0;labelBackgroundColor=none;strokeWidth=1;fillColor=#ffe6cc;strokeColor=#d79b00;" parent="1" vertex="1">
          <mxGeometry x="555" y="4318" width="344.5" height="130" as="geometry" />
        </mxCell>
        <mxCell id="node13" value="&lt;p style=&quot;margin:0px;margin-top:4px;text-align:center;&quot;&gt;&lt;i&gt;&amp;lt;&amp;lt;interface&amp;gt;&amp;gt;&lt;/i&gt;&lt;br&gt;&lt;b&gt;GameModel&lt;/b&gt;&lt;/p&gt;&lt;hr size=&quot;1&quot;&gt;&lt;p style=&quot;margin:0 0 0 4px;line-height:1.6;&quot;&gt;+ nextTurn(): void&lt;/p&gt;&lt;p style=&quot;margin: 0px 0px 0px 4px; line-height: 1.6;&quot;&gt;+ getGoldDeck() : GoldDeck&lt;/p&gt;&lt;p style=&quot;margin: 0px 0px 0px 4px; line-height: 1.6;&quot;&gt;+ getResourceDeck() : ResourceDeck&lt;br&gt;+ getAchievementDeck() : AchievementDeck&lt;br&gt;+ getStartingCards() : List&amp;lt;StartingCard&amp;gt;&lt;/p&gt;&lt;p style=&quot;margin: 0px 0px 0px 4px; line-height: 1.6;&quot;&gt;+ getTurn() : int&lt;br&gt;&lt;/p&gt;&lt;p style=&quot;margin:0 0 0 4px;line-height:1.6;&quot;&gt;+ isEndGamePhase() : boolean&lt;/p&gt;&lt;p style=&quot;margin:0 0 0 4px;line-height:1.6;&quot;&gt;+ setEndGamePhase() : void&lt;br&gt;&lt;/p&gt;&lt;p style=&quot;margin:0 0 0 4px;line-height:1.6;&quot;&gt;+ getChat() : Chat&lt;br&gt;&lt;/p&gt;&lt;p style=&quot;margin:0 0 0 4px;line-height:1.6;&quot;&gt;+ addPlayer(player : Player) : void&lt;/p&gt;&lt;p style=&quot;margin:0 0 0 4px;line-height:1.6;&quot;&gt;+ removePlayer(player : Player) : void&lt;/p&gt;&lt;p style=&quot;margin:0 0 0 4px;line-height:1.6;&quot;&gt;+ getPlayerList() : List&amp;lt;Player&amp;gt;&lt;/p&gt;&lt;p style=&quot;margin:0 0 0 4px;line-height:1.6;&quot;&gt;+ setPlayerList(playerList : List&amp;lt;Player&amp;gt;) :&amp;nbsp; void&lt;/p&gt;&lt;p style=&quot;margin:0 0 0 4px;line-height:1.6;&quot;&gt;+ shufflePLayerList() : void&lt;/p&gt;&lt;p style=&quot;margin:0 0 0 4px;line-height:1.6;&quot;&gt;+ createGoldResourceDeck() : void&lt;/p&gt;&lt;p style=&quot;margin:0 0 0 4px;line-height:1.6;&quot;&gt;+ createStartingCards() : void&lt;/p&gt;&lt;p style=&quot;margin:0 0 0 4px;line-height:1.6;&quot;&gt;+ createAchievementDeck() : void&lt;/p&gt;&lt;p style=&quot;margin:0 0 0 4px;line-height:1.6;&quot;&gt;+ getActivePlayerIndex() : int&lt;/p&gt;&lt;p style=&quot;margin:0 0 0 4px;line-height:1.6;&quot;&gt;+ isLastRound() : boolean&lt;/p&gt;&lt;p style=&quot;margin:0 0 0 4px;line-height:1.6;&quot;&gt;+ setLastRound(lastRound : boolean) : void&lt;/p&gt;&lt;p style=&quot;margin:0 0 0 4px;line-height:1.6;&quot;&gt;+ setActivePlayerIndex (activePlayerIndex : int) : void&lt;/p&gt;" style="verticalAlign=top;align=left;overflow=fill;fontSize=14;fontFamily=Helvetica;html=1;rounded=0;shadow=0;comic=0;labelBackgroundColor=none;strokeWidth=1;" parent="1" vertex="1">
          <mxGeometry x="1850" y="4234" width="344" height="530" as="geometry" />
        </mxCell>
        <mxCell id="node30" value="&lt;p style=&quot;margin:0px;margin-top:4px;text-align:center;&quot;&gt;&lt;b&gt;GoldDeck&lt;/b&gt;&lt;/p&gt;&lt;hr size=&quot;1&quot;&gt;&lt;p style=&quot;margin: 0px 0px 0px 4px; line-height: 1.6;&quot;&gt;- cards : List&amp;lt;GoldCard&amp;gt;&lt;/p&gt;&lt;p style=&quot;margin: 0px 0px 0px 4px; line-height: 1.6;&quot;&gt;- boardCards : Map&amp;lt;DeckPosition, GoldCard&amp;gt;&lt;/p&gt;&lt;hr size=&quot;1&quot;&gt;&lt;p style=&quot;margin:0 0 0 4px;line-height:1.6;&quot;&gt;- createCards(): void&lt;/p&gt;&lt;p style=&quot;margin:0 0 0 4px;line-height:1.6;&quot;&gt;+ GoldDeck()&lt;/p&gt;&lt;p style=&quot;margin:0 0 0 4px;line-height:1.6;&quot;&gt;+ GoldDeck(Boolean test)&lt;/p&gt;&lt;p style=&quot;margin:0 0 0 4px;line-height:1.6;&quot;&gt;+ shuffle() : void&lt;/p&gt;&lt;p style=&quot;margin:0 0 0 4px;line-height:1.6;&quot;&gt;+ moveCardToBoard(where_to : DeckPosition) : void&lt;/p&gt;&lt;p style=&quot;margin:0 0 0 4px;line-height:1.6;&quot;&gt;+ popCard(position : DeckPosition) : GoldCard&lt;/p&gt;&lt;p style=&quot;margin:0 0 0 4px;line-height:1.6;&quot;&gt;+ isEmpty() : boolean&lt;/p&gt;&lt;p style=&quot;margin:0 0 0 4px;line-height:1.6;&quot;&gt;+ addCard(card. Card, position : DeckPosition) : void&lt;/p&gt;&lt;p style=&quot;margin:0 0 0 4px;line-height:1.6;&quot;&gt;+ getTopCardNoPop() : GoldCard&lt;/p&gt;&lt;p style=&quot;margin:0 0 0 4px;line-height:1.6;&quot;&gt;+ getNumberOfCards() : int&lt;/p&gt;&lt;p style=&quot;margin:0 0 0 4px;line-height:1.6;&quot;&gt;&lt;br&gt;&lt;/p&gt;&lt;p style=&quot;margin:0 0 0 4px;line-height:1.6;&quot;&gt;&lt;br&gt;&lt;/p&gt;" style="verticalAlign=top;align=left;overflow=fill;fontSize=14;fontFamily=Helvetica;html=1;rounded=0;shadow=0;comic=0;labelBackgroundColor=none;strokeWidth=1;fillColor=#ffe6cc;strokeColor=#d79b00;" parent="1" vertex="1">
          <mxGeometry x="535" y="3827" width="350" height="330" as="geometry" />
        </mxCell>
        <mxCell id="node26" value="&lt;p style=&quot;margin:0px;margin-top:4px;text-align:center;&quot;&gt;&lt;b&gt;Graph&lt;/b&gt;&lt;/p&gt;&lt;hr size=&quot;1&quot;&gt;&lt;p style=&quot;margin:0 0 0 4px;line-height:1.6;&quot;&gt;- containedCards : List&amp;lt;CornerCardFace&amp;gt;&lt;/p&gt;&lt;p style=&quot;margin:0 0 0 4px;line-height:1.6;&quot;&gt;- cardNeighbors : List&amp;lt;Map&amp;lt;CardCorners, CornerCardFace&amp;gt;&amp;gt;&lt;/p&gt;&lt;p style=&quot;margin:0 0 0 4px;line-height:1.6;&quot;&gt;- root : CornerCardFace&lt;/p&gt;&lt;hr size=&quot;1&quot;&gt;&lt;p style=&quot;margin:0 0 0 4px;line-height:1.6;&quot;&gt;+ Graph(CornerCardFace)&lt;/p&gt;&lt;p style=&quot;margin:0 0 0 4px;line-height:1.6;&quot;&gt;+ getNeighbors(CornercardFace) : Map&amp;lt;CardCorners, CornerCardFace&amp;gt;&amp;gt;&lt;br&gt;&lt;/p&gt;&lt;p style=&quot;margin:0 0 0 4px;line-height:1.6;&quot;&gt;+ getRoot : CornerCardFace&lt;/p&gt;&lt;p style=&quot;margin:0 0 0 4px;line-height:1.6;&quot;&gt;+ getCardsOver(CornerCardFace) : Map&amp;lt;CardCorners, CornerCardFace&amp;gt;&lt;/p&gt;&lt;p style=&quot;margin:0 0 0 4px;line-height:1.6;&quot;&gt;+ getCardsUnder(CornerCardFace) : Map&amp;lt;CardCorners, CornerCardFace&amp;gt;&lt;br&gt;&lt;/p&gt;&lt;p style=&quot;margin:0 0 0 4px;line-height:1.6;&quot;&gt;+ addCard(CornerCardFace, Map&amp;lt;CardCorners, CornerCardFace&amp;gt;, int)&lt;/p&gt;&lt;p style=&quot;margin:0 0 0 4px;line-height:1.6;&quot;&gt;+ getAllCardsCopy() : List&amp;lt;CornerCardFace&amp;gt;&lt;/p&gt;&lt;p style=&quot;margin:0 0 0 4px;line-height:1.6;&quot;&gt;+ getAllCards() : List&amp;lt;CornerCardFace&amp;gt;&lt;/p&gt;&lt;p style=&quot;margin:0 0 0 4px;line-height:1.6;&quot;&gt;- addNode(CornerCardFace)&lt;/p&gt;&lt;p style=&quot;margin:0 0 0 4px;line-height:1.6;&quot;&gt;- addEdge(CornerCardFace, CardCorners, CornerCardFace)&lt;/p&gt;" style="verticalAlign=top;align=left;overflow=fill;fontSize=14;fontFamily=Helvetica;html=1;rounded=0;shadow=0;comic=0;labelBackgroundColor=none;strokeWidth=1;fillColor=#e1d5e7;strokeColor=#9673a6;" parent="1" vertex="1">
          <mxGeometry x="2840" y="5804" width="444" height="350" as="geometry" />
        </mxCell>
        <mxCell id="node38" value="&lt;p style=&quot;margin:0px;margin-top:4px;text-align:center;&quot;&gt;&lt;b&gt;Manuscript&lt;/b&gt;&lt;/p&gt;&lt;hr size=&quot;1&quot;&gt;&lt;p style=&quot;margin:0 0 0 4px;line-height:1.6;&quot;&gt;- graph : Graph&lt;/p&gt;&lt;p style=&quot;margin:0 0 0 4px;line-height:1.6;&quot;&gt;- activeSymbols : Map&amp;lt;Symbol, Integer&amp;gt;&lt;/p&gt;&lt;hr size=&quot;1&quot;&gt;&lt;p style=&quot;margin:0 0 0 4px;line-height:1.6;&quot;&gt;+ Manuscript(cardFace : CornerCardFace)&lt;/p&gt;&lt;p style=&quot;margin:0 0 0 4px;line-height:1.6;&quot;&gt;+ getSymbolCount(symbol : Symbol): int&lt;br&gt;+ addCard(xcoordinate : int, ycoordinate : int, cardFace : CornerCardFace, turn : int)&lt;br&gt;&lt;/p&gt;&lt;p style=&quot;margin:0 0 0 4px;line-height:1.6;&quot;&gt;+ getCardByCoord(x : int, y : int) : CornerCardFace&lt;/p&gt;&lt;p style=&quot;margin:0 0 0 4px;line-height:1.6;&quot;&gt;+ calculatePoints(achievementCard : AchievementCard) : int&lt;/p&gt;&lt;p style=&quot;margin:0 0 0 4px;line-height:1.6;&quot;&gt;+ getCardsUnder(cardFace : CornerCardFace) : Map&amp;lt;CardCorners, CornerCardFace&amp;gt;&lt;/p&gt;&lt;p style=&quot;margin:0 0 0 4px;line-height:1.6;&quot;&gt;+ isPlaceable(x : int, y : int, cardFace : CornerCardFace) : boolean&lt;/p&gt;&lt;p style=&quot;margin:0 0 0 4px;line-height:1.6;&quot;&gt;+ getAllCArds() : List&amp;lt;CornerCardFace&amp;gt;&lt;/p&gt;" style="verticalAlign=top;align=left;overflow=fill;fontSize=14;fontFamily=Helvetica;html=1;rounded=0;shadow=0;comic=0;labelBackgroundColor=none;strokeWidth=1;fillColor=#e1d5e7;strokeColor=#9673a6;" parent="1" vertex="1">
          <mxGeometry x="2837" y="5395" width="550" height="280" as="geometry" />
        </mxCell>
        <mxCell id="node20" value="&lt;p style=&quot;margin:0px;margin-top:4px;text-align:center;&quot;&gt;&lt;b&gt;Message&lt;/b&gt;&lt;/p&gt;&lt;hr size=&quot;1&quot;&gt;&lt;p style=&quot;margin:0 0 0 4px;line-height:1.6;&quot;&gt;- timestamp: Timestamp&lt;br&gt;- message: String&lt;br&gt;- sender: Player&lt;/p&gt;&lt;hr size=&quot;1&quot;&gt;&lt;p style=&quot;margin:0 0 0 4px;line-height:1.6;&quot;&gt;+ Message(message : String, name :&amp;nbsp; String)&lt;br&gt;&lt;/p&gt;&lt;p style=&quot;margin:0 0 0 4px;line-height:1.6;&quot;&gt;+ getMessage() : String&lt;br&gt;+ getName() : String&lt;br&gt;+ getTimestamp() : Timestamp&lt;/p&gt;" style="verticalAlign=top;align=left;overflow=fill;fontSize=14;fontFamily=Helvetica;html=1;rounded=0;shadow=0;comic=0;labelBackgroundColor=none;strokeWidth=1;fillColor=#f8cecc;strokeColor=#b85450;" parent="1" vertex="1">
          <mxGeometry x="1386.25" y="5435" width="287.5" height="229" as="geometry" />
        </mxCell>
        <mxCell id="node19" value="&lt;p style=&quot;margin:0px;margin-top:4px;text-align:center;&quot;&gt;&lt;i&gt;&amp;lt;&amp;lt;interface&amp;gt;&amp;gt;&lt;/i&gt;&lt;br&gt;&lt;b&gt;Player&lt;/b&gt;&lt;/p&gt;&lt;hr size=&quot;1&quot;&gt;&lt;p style=&quot;margin:0 0 0 4px;line-height:1.6;&quot;&gt;+ addCardToHand(card : Card) : void&amp;nbsp;&lt;br&gt;+ addPoints(int): void&lt;br&gt;+ initializeManuscript(StartingCard, Face): void&lt;br&gt;+ removeCardFromHand(position : int)&lt;/p&gt;&lt;hr size=&quot;1&quot;&gt;&lt;p style=&quot;margin:0 0 0 4px;line-height:1.6;&quot;&gt;+ getName() : String&lt;br&gt;+ getColor() : Color&lt;/p&gt;&lt;p style=&quot;margin:0 0 0 4px;line-height:1.6;&quot;&gt;+ setColor(color : Color)&lt;br&gt;+ getPoints() : int&lt;/p&gt;&lt;p style=&quot;margin:0 0 0 4px;line-height:1.6;&quot;&gt;+ addPoints(num :int)&lt;/p&gt;&lt;p style=&quot;margin:0 0 0 4px;line-height:1.6;&quot;&gt;+ initializeManuscript(startingCard : Card, face : Face&lt;br&gt;+ getSecretObjective() : AchievementCard&lt;/p&gt;&lt;p style=&quot;margin:0 0 0 4px;line-height:1.6;&quot;&gt;+ setSecretObjective(achievementCard : AchievementCard)&lt;br&gt;+ getManuscript(): Manuscript&lt;/p&gt;&lt;p style=&quot;margin:0 0 0 4px;line-height:1.6;&quot;&gt;+ setReady(ready : boolean)&lt;/p&gt;&lt;p style=&quot;margin:0 0 0 4px;line-height:1.6;&quot;&gt;+ isReady() : boolean&lt;/p&gt;" style="verticalAlign=top;align=left;overflow=fill;fontSize=14;fontFamily=Helvetica;html=1;rounded=0;shadow=0;comic=0;labelBackgroundColor=none;strokeWidth=1;fillColor=#e1d5e7;strokeColor=#9673a6;" parent="1" vertex="1">
          <mxGeometry x="2330" y="5264" width="382" height="411" as="geometry" />
        </mxCell>
        <mxCell id="node25" value="&lt;p style=&quot;margin:0px;margin-top:4px;text-align:center;&quot;&gt;&lt;b&gt;ResourceDeck&lt;/b&gt;&lt;/p&gt;&lt;hr size=&quot;1&quot;&gt;&lt;p style=&quot;margin: 0px 0px 0px 4px; line-height: 1.6;&quot;&gt;- cards : List&amp;lt;GoldCard&amp;gt;&lt;/p&gt;&lt;p style=&quot;margin: 0px 0px 0px 4px; line-height: 1.6;&quot;&gt;- boardCards : Map&amp;lt;DeckPosition, ResourceCard&amp;gt;&lt;/p&gt;&lt;hr size=&quot;1&quot;&gt;&lt;p style=&quot;margin:0 0 0 4px;line-height:1.6;&quot;&gt;- createCards(): void&lt;/p&gt;&lt;p style=&quot;margin:0 0 0 4px;line-height:1.6;&quot;&gt;+ ResourceDeck()&lt;/p&gt;&lt;p style=&quot;margin:0 0 0 4px;line-height:1.6;&quot;&gt;+ ResourceDeck(Boolean test)&lt;/p&gt;&lt;p style=&quot;margin:0 0 0 4px;line-height:1.6;&quot;&gt;+ shuffle() : void&lt;/p&gt;&lt;p style=&quot;margin:0 0 0 4px;line-height:1.6;&quot;&gt;+ moveCardToBoard(where_to : DeckPosition) : void&lt;/p&gt;&lt;p style=&quot;margin:0 0 0 4px;line-height:1.6;&quot;&gt;+ getBoardCard() : Map&amp;lt;DeckPosition, ResourceCard&amp;gt;&lt;/p&gt;&lt;p style=&quot;margin:0 0 0 4px;line-height:1.6;&quot;&gt;+ popCard(position : DeckPosition) : ResourceCard&lt;/p&gt;&lt;p style=&quot;margin:0 0 0 4px;line-height:1.6;&quot;&gt;+ isEmpty() : boolean&lt;/p&gt;&lt;p style=&quot;margin:0 0 0 4px;line-height:1.6;&quot;&gt;+ addCard(card&amp;nbsp; : Card, position : DeckPosition) : void&lt;/p&gt;&lt;p style=&quot;margin:0 0 0 4px;line-height:1.6;&quot;&gt;+ getTopCardNoPop() : ResourceCard&lt;/p&gt;&lt;p style=&quot;margin:0 0 0 4px;line-height:1.6;&quot;&gt;+ getNumberOfCards() : int&lt;/p&gt;&lt;p style=&quot;margin:0 0 0 4px;line-height:1.6;&quot;&gt;&lt;br&gt;&lt;/p&gt;" style="verticalAlign=top;align=left;overflow=fill;fontSize=14;fontFamily=Helvetica;html=1;rounded=0;shadow=0;comic=0;labelBackgroundColor=none;strokeWidth=1;fillColor=#ffe6cc;strokeColor=#d79b00;" parent="1" vertex="1">
          <mxGeometry x="150" y="3816" width="350" height="344" as="geometry" />
        </mxCell>
        <mxCell id="node21" value="&lt;p style=&quot;margin:0px;margin-top:4px;text-align:center;&quot;&gt;&lt;i&gt;&amp;lt;&amp;lt;interface&amp;gt;&amp;gt;&lt;/i&gt;&lt;br&gt;&lt;/p&gt;&lt;p style=&quot;margin:0px;margin-top:4px;text-align:center;&quot;&gt;&lt;b&gt;Controller&lt;/b&gt;&lt;/p&gt;&lt;hr size=&quot;1&quot;&gt;&lt;p style=&quot;margin:0 0 0 4px;line-height:1.6;&quot;&gt;&lt;span style=&quot;background-color: initial;&quot;&gt;&amp;nbsp;+ changeState(state: ServerState): void&amp;nbsp; &amp;nbsp; &amp;nbsp; &amp;nbsp; &amp;nbsp; &amp;nbsp; &amp;nbsp; &amp;nbsp; &amp;nbsp; &amp;nbsp; &amp;nbsp; &amp;nbsp; &amp;nbsp; &amp;nbsp; &amp;nbsp; &amp;nbsp;&amp;nbsp;&lt;/span&gt;&lt;br&gt;&lt;/p&gt;&lt;p style=&quot;margin:0 0 0 4px;line-height:1.6;&quot;&gt;&amp;nbsp;+ addPlayer(name: String, clientID: String): void&amp;nbsp; &amp;nbsp; &amp;nbsp; &amp;nbsp; &amp;nbsp; &amp;nbsp; &amp;nbsp; &amp;nbsp; &amp;nbsp; &amp;nbsp; &amp;nbsp;&lt;/p&gt;&lt;p style=&quot;margin:0 0 0 4px;line-height:1.6;&quot;&gt;&amp;nbsp;+ removePlayer(player: Player): void&amp;nbsp; &amp;nbsp; &amp;nbsp; &amp;nbsp; &amp;nbsp; &amp;nbsp; &amp;nbsp; &amp;nbsp; &amp;nbsp; &amp;nbsp; &amp;nbsp; &amp;nbsp; &amp;nbsp; &amp;nbsp; &amp;nbsp; &amp;nbsp; &amp;nbsp; &amp;nbsp;&lt;span style=&quot;background-color: initial;&quot;&gt;&amp;nbsp; &amp;nbsp; &amp;nbsp; &amp;nbsp; &amp;nbsp; &amp;nbsp; &amp;nbsp; &amp;nbsp; &amp;nbsp; &amp;nbsp; &amp;nbsp; &amp;nbsp; &amp;nbsp; &amp;nbsp; &amp;nbsp; &amp;nbsp;&amp;nbsp;&lt;/span&gt;&lt;/p&gt;&lt;p style=&quot;margin:0 0 0 4px;line-height:1.6;&quot;&gt;&amp;nbsp;+ getPlayerList(): List&amp;lt;Player&amp;gt;&amp;nbsp; &amp;nbsp; &amp;nbsp; &amp;nbsp; &amp;nbsp; &amp;nbsp; &amp;nbsp; &amp;nbsp; &amp;nbsp; &amp;nbsp; &amp;nbsp; &amp;nbsp; &amp;nbsp; &amp;nbsp; &amp;nbsp; &amp;nbsp; &amp;nbsp; &amp;nbsp; &amp;nbsp; &amp;nbsp;&lt;/p&gt;&lt;p style=&quot;margin:0 0 0 4px;line-height:1.6;&quot;&gt;&amp;nbsp;+ setOffline(id: String): void&amp;nbsp; &amp;nbsp; &amp;nbsp; &amp;nbsp; &amp;nbsp; &amp;nbsp; &amp;nbsp; &amp;nbsp; &amp;nbsp; &amp;nbsp; &amp;nbsp; &amp;nbsp; &amp;nbsp; &amp;nbsp; &amp;nbsp; &amp;nbsp; &amp;nbsp; &amp;nbsp; &amp;nbsp; &amp;nbsp;&amp;nbsp;&lt;/p&gt;&lt;p style=&quot;margin:0 0 0 4px;line-height:1.6;&quot;&gt;&amp;nbsp;+ setPlayerColor(color: Color, player: Player): void&amp;nbsp; &amp;nbsp; &amp;nbsp; &amp;nbsp; &amp;nbsp; &amp;nbsp; &amp;nbsp; &amp;nbsp; &amp;nbsp; &lt;span style=&quot;background-color: initial;&quot;&gt;&amp;nbsp; &amp;nbsp; &amp;nbsp; &amp;nbsp; &amp;nbsp;&amp;nbsp;&lt;/span&gt;&lt;/p&gt;&lt;p style=&quot;margin:0 0 0 4px;line-height:1.6;&quot;&gt;&amp;nbsp;+ setReady(player: Player): void&amp;nbsp; &amp;nbsp; &amp;nbsp; &amp;nbsp; &amp;nbsp; &amp;nbsp; &amp;nbsp; &amp;nbsp; &amp;nbsp; &amp;nbsp; &amp;nbsp; &amp;nbsp; &amp;nbsp; &amp;nbsp; &amp;nbsp; &amp;nbsp; &amp;nbsp; &amp;nbsp; &amp;nbsp; &lt;span style=&quot;background-color: initial;&quot;&gt;&amp;nbsp; &amp;nbsp; &amp;nbsp; &amp;nbsp; &amp;nbsp; &amp;nbsp; &amp;nbsp;&lt;/span&gt;&lt;/p&gt;&lt;p style=&quot;margin:0 0 0 4px;line-height:1.6;&quot;&gt;&amp;nbsp;+ setNotReady(player: Player): void&amp;nbsp; &amp;nbsp; &amp;nbsp; &amp;nbsp; &amp;nbsp; &amp;nbsp; &amp;nbsp; &amp;nbsp; &amp;nbsp; &amp;nbsp; &amp;nbsp; &amp;nbsp; &amp;nbsp; &amp;nbsp; &amp;nbsp; &amp;nbsp; &amp;nbsp; &amp;nbsp;&lt;span style=&quot;background-color: initial;&quot;&gt;&amp;nbsp; &amp;nbsp; &amp;nbsp; &amp;nbsp; &amp;nbsp; &amp;nbsp;&amp;nbsp;&lt;/span&gt;&lt;/p&gt;&lt;p style=&quot;margin:0 0 0 4px;line-height:1.6;&quot;&gt;&amp;nbsp;+ isReady(player: Player): boolean&amp;nbsp; &amp;nbsp; &amp;nbsp; &amp;nbsp; &amp;nbsp; &amp;nbsp; &amp;nbsp; &amp;nbsp; &amp;nbsp; &amp;nbsp; &amp;nbsp; &amp;nbsp; &amp;nbsp; &amp;nbsp; &amp;nbsp; &amp;nbsp; &amp;nbsp; &amp;nbsp;&amp;nbsp;&lt;/p&gt;&lt;p style=&quot;margin:0 0 0 4px;line-height:1.6;&quot;&gt;&amp;nbsp;+ setSecretObjectiveCard(player: Player, cardNumber: int): void&lt;/p&gt;&lt;p style=&quot;margin:0 0 0 4px;line-height:1.6;&quot;&gt;&amp;nbsp;+ setStartingCard(player: Player, face: Face): void&amp;nbsp; &amp;nbsp;&lt;/p&gt;&lt;p style=&quot;margin:0 0 0 4px;line-height:1.6;&quot;&gt;&amp;nbsp;+ getTurn(): int&amp;nbsp; &amp;nbsp; &amp;nbsp; &amp;nbsp; &amp;nbsp; &amp;nbsp; &amp;nbsp; &amp;nbsp; &amp;nbsp; &amp;nbsp; &amp;nbsp; &amp;nbsp; &amp;nbsp; &amp;nbsp; &amp;nbsp; &amp;nbsp; &amp;nbsp; &amp;nbsp; &amp;nbsp; &amp;nbsp; &amp;nbsp; &amp;nbsp; &amp;nbsp; &amp;nbsp; &amp;nbsp; &amp;nbsp; &amp;nbsp;&amp;nbsp;&lt;/p&gt;&lt;p style=&quot;margin:0 0 0 4px;line-height:1.6;&quot;&gt;&amp;nbsp;+ isOnline(player: Player): boolean&amp;nbsp; &amp;nbsp; &amp;nbsp; &amp;nbsp; &amp;nbsp; &amp;nbsp; &amp;nbsp; &amp;nbsp; &amp;nbsp; &amp;nbsp; &amp;nbsp; &amp;nbsp; &amp;nbsp; &amp;nbsp; &amp;nbsp; &amp;nbsp; &amp;nbsp; &amp;nbsp;&lt;/p&gt;&lt;p style=&quot;margin:0 0 0 4px;line-height:1.6;&quot;&gt;&amp;nbsp;+ playCard(player: Player, position: int, xCoord: int, yCoord: int, face: Face): void&lt;/p&gt;&lt;p style=&quot;margin:0 0 0 4px;line-height:1.6;&quot;&gt;&amp;nbsp;+ drawCard(player: Player, deckposition: DeckPosition, deck: Decks): void&lt;/p&gt;&lt;p style=&quot;margin:0 0 0 4px;line-height:1.6;&quot;&gt;&amp;nbsp;+ addMessage(message: String, player: Player): void&amp;nbsp;&amp;nbsp;&lt;/p&gt;&lt;p style=&quot;margin:0 0 0 4px;line-height:1.6;&quot;&gt;&amp;nbsp;+ saveGame(): void&amp;nbsp; &amp;nbsp; &amp;nbsp; &amp;nbsp; &amp;nbsp; &amp;nbsp; &amp;nbsp; &amp;nbsp; &amp;nbsp; &amp;nbsp; &amp;nbsp; &amp;nbsp; &amp;nbsp; &amp;nbsp; &amp;nbsp; &amp;nbsp; &amp;nbsp; &amp;nbsp; &amp;nbsp; &amp;nbsp; &amp;nbsp; &amp;nbsp; &amp;nbsp; &amp;nbsp; &amp;nbsp; &amp;nbsp;&amp;nbsp;&lt;/p&gt;&lt;p style=&quot;margin:0 0 0 4px;line-height:1.6;&quot;&gt;&amp;nbsp;+ loadGame(): void&amp;nbsp; &amp;nbsp; &amp;nbsp; &amp;nbsp; &amp;nbsp; &amp;nbsp; &amp;nbsp; &amp;nbsp; &amp;nbsp; &amp;nbsp; &amp;nbsp; &amp;nbsp; &amp;nbsp; &amp;nbsp; &amp;nbsp; &amp;nbsp; &amp;nbsp; &amp;nbsp; &amp;nbsp; &amp;nbsp; &amp;nbsp; &amp;nbsp; &amp;nbsp; &amp;nbsp; &amp;nbsp;&lt;/p&gt;&lt;p style=&quot;margin:0 0 0 4px;line-height:1.6;&quot;&gt;&amp;nbsp;+ getPlayerByName(name: String): Player&amp;nbsp; &amp;nbsp; &amp;nbsp; &amp;nbsp; &amp;nbsp; &amp;nbsp; &amp;nbsp; &amp;nbsp; &amp;nbsp; &amp;nbsp; &amp;nbsp; &amp;nbsp; &amp;nbsp; &amp;nbsp;&amp;nbsp;&lt;/p&gt;&lt;p style=&quot;margin:0 0 0 4px;line-height:1.6;&quot;&gt;&amp;nbsp;+ getConnectionHandler(): GeneralServerConnectionHandler&amp;nbsp; &amp;nbsp; &amp;nbsp; &amp;nbsp; &amp;nbsp; &amp;nbsp; &amp;nbsp;&amp;nbsp;&lt;/p&gt;&lt;p style=&quot;margin:0 0 0 4px;line-height:1.6;&quot;&gt;&amp;nbsp;+ reactToDisconnection(id: String): void&amp;nbsp; &amp;nbsp; &amp;nbsp; &amp;nbsp; &amp;nbsp; &amp;nbsp; &amp;nbsp; &amp;nbsp; &amp;nbsp; &amp;nbsp; &amp;nbsp; &amp;nbsp; &amp;nbsp; &amp;nbsp; &amp;nbsp;&amp;nbsp;&lt;/p&gt;&lt;p style=&quot;margin:0 0 0 4px;line-height:1.6;&quot;&gt;&amp;nbsp;+ reconnect(newId: String, oldId: String): void&amp;nbsp; &amp;nbsp; &amp;nbsp; &amp;nbsp; &amp;nbsp; &amp;nbsp; &amp;nbsp; &amp;nbsp; &amp;nbsp; &amp;nbsp; &amp;nbsp;&lt;/p&gt;&lt;p style=&quot;margin:0 0 0 4px;line-height:1.6;&quot;&gt;&amp;nbsp;+ addSavedPlayer(id: String, name: String): void&amp;nbsp; &amp;nbsp; &amp;nbsp; &amp;nbsp; &amp;nbsp; &amp;nbsp; &amp;nbsp; &amp;nbsp; &amp;nbsp;&amp;nbsp;&lt;/p&gt;&lt;p style=&quot;margin:0 0 0 4px;line-height:1.6;&quot;&gt;&amp;nbsp;+ shufflePlayerList(): void&amp;nbsp; &amp;nbsp; &amp;nbsp; &amp;nbsp; &amp;nbsp; &amp;nbsp; &amp;nbsp; &amp;nbsp; &amp;nbsp; &amp;nbsp; &amp;nbsp; &amp;nbsp; &amp;nbsp; &amp;nbsp; &amp;nbsp; &amp;nbsp; &amp;nbsp; &amp;nbsp; &amp;nbsp; &amp;nbsp; &amp;nbsp; &amp;nbsp;&lt;/p&gt;&lt;p style=&quot;margin:0 0 0 4px;line-height:1.6;&quot;&gt;&amp;nbsp;+ nextTurn(): void&amp;nbsp; &amp;nbsp; &amp;nbsp; &amp;nbsp; &amp;nbsp; &amp;nbsp; &amp;nbsp; &amp;nbsp; &amp;nbsp; &amp;nbsp; &amp;nbsp; &amp;nbsp; &amp;nbsp; &amp;nbsp; &amp;nbsp; &amp;nbsp; &amp;nbsp; &amp;nbsp; &amp;nbsp; &amp;nbsp; &amp;nbsp; &amp;nbsp; &amp;nbsp; &amp;nbsp; &amp;nbsp; &amp;nbsp;&amp;nbsp;&lt;/p&gt;&lt;p style=&quot;margin:0 0 0 4px;line-height:1.6;&quot;&gt;&amp;nbsp;+ giveInitialHand(): void&amp;nbsp; &amp;nbsp; &amp;nbsp; &amp;nbsp; &amp;nbsp; &amp;nbsp; &amp;nbsp; &amp;nbsp; &amp;nbsp; &amp;nbsp; &amp;nbsp; &amp;nbsp; &amp;nbsp; &amp;nbsp; &amp;nbsp; &amp;nbsp; &amp;nbsp; &amp;nbsp; &amp;nbsp; &amp;nbsp; &amp;nbsp; &amp;nbsp; &amp;nbsp;&lt;span style=&quot;background-color: initial;&quot;&gt;&amp;nbsp; &amp;nbsp; &amp;nbsp; &amp;nbsp; &amp;nbsp; &amp;nbsp; &amp;nbsp;&amp;nbsp;&lt;/span&gt;&lt;/p&gt;&lt;p style=&quot;margin:0 0 0 4px;line-height:1.6;&quot;&gt;&amp;nbsp;+ computeLeaderboard(): void&amp;nbsp; &amp;nbsp; &amp;nbsp; &amp;nbsp; &amp;nbsp; &amp;nbsp; &amp;nbsp; &amp;nbsp; &amp;nbsp; &amp;nbsp; &amp;nbsp; &amp;nbsp; &amp;nbsp; &amp;nbsp; &amp;nbsp; &amp;nbsp; &amp;nbsp; &amp;nbsp; &amp;nbsp; &amp;nbsp; &amp;nbsp;&amp;nbsp;&lt;/p&gt;&lt;p style=&quot;margin:0 0 0 4px;line-height:1.6;&quot;&gt;&amp;nbsp;+ disconnectionLeaderboard(): void&amp;nbsp; &amp;nbsp; &amp;nbsp; &amp;nbsp; &amp;nbsp; &amp;nbsp; &amp;nbsp; &amp;nbsp; &amp;nbsp; &amp;nbsp; &amp;nbsp; &amp;nbsp; &amp;nbsp; &amp;nbsp; &amp;nbsp; &amp;nbsp; &amp;nbsp; &amp;nbsp;&amp;nbsp;&lt;/p&gt;&lt;p style=&quot;margin:0 0 0 4px;line-height:1.6;&quot;&gt;&amp;nbsp;+ endGame(): void&amp;nbsp; &amp;nbsp; &amp;nbsp; &amp;nbsp; &amp;nbsp; &amp;nbsp; &amp;nbsp; &amp;nbsp; &amp;nbsp; &amp;nbsp; &amp;nbsp; &amp;nbsp; &amp;nbsp; &amp;nbsp; &amp;nbsp; &amp;nbsp; &amp;nbsp; &amp;nbsp; &amp;nbsp; &amp;nbsp; &amp;nbsp; &amp;nbsp; &amp;nbsp; &amp;nbsp; &amp;nbsp; &amp;nbsp; &amp;nbsp;&lt;/p&gt;&lt;p style=&quot;margin:0 0 0 4px;line-height:1.6;&quot;&gt;&amp;nbsp;+ start(): void&amp;nbsp; &amp;nbsp; &amp;nbsp; &amp;nbsp; &amp;nbsp; &amp;nbsp; &amp;nbsp; &amp;nbsp; &amp;nbsp; &amp;nbsp; &amp;nbsp; &amp;nbsp; &amp;nbsp; &amp;nbsp; &amp;nbsp; &amp;nbsp; &amp;nbsp; &amp;nbsp; &amp;nbsp; &amp;nbsp; &amp;nbsp; &amp;nbsp; &amp;nbsp; &amp;nbsp; &amp;nbsp; &amp;nbsp; &amp;nbsp;&lt;/p&gt;&lt;p style=&quot;margin:0 0 0 4px;line-height:1.6;&quot;&gt;&lt;br&gt;&lt;/p&gt;&lt;div&gt;&lt;br&gt;&lt;/div&gt;" style="verticalAlign=top;align=left;overflow=fill;fontSize=14;fontFamily=Helvetica;html=1;rounded=0;shadow=0;comic=0;labelBackgroundColor=none;strokeWidth=1;fillColor=#FFE599;" parent="1" vertex="1">
          <mxGeometry x="2611" y="4164.25" width="510" height="729.75" as="geometry" />
        </mxCell>
        <mxCell id="MsVvcPOBn9quLAbErUfB-25" value="0..." style="endArrow=open;html=1;endSize=12;startArrow=diamondThin;startSize=14;startFill=1;edgeStyle=orthogonalEdgeStyle;align=left;verticalAlign=bottom;rounded=0;exitX=0.4;exitY=1.034;exitDx=0;exitDy=0;entryX=0.5;entryY=0;entryDx=0;entryDy=0;exitPerimeter=0;" parent="1" source="node39" target="node20" edge="1">
          <mxGeometry x="0.1897" relative="1" as="geometry">
            <mxPoint x="1840" y="5254" as="sourcePoint" />
            <mxPoint x="1840" y="5124" as="targetPoint" />
            <mxPoint as="offset" />
          </mxGeometry>
        </mxCell>
        <mxCell id="sNemiut326uwsuaX65BH-12" value="1" style="endArrow=open;html=1;endSize=12;startArrow=diamondThin;startSize=14;startFill=1;edgeStyle=orthogonalEdgeStyle;align=left;verticalAlign=bottom;rounded=0;" parent="1" edge="1">
          <mxGeometry x="-1" y="3" relative="1" as="geometry">
            <mxPoint x="3070" y="5684" as="sourcePoint" />
            <mxPoint x="3078" y="5804" as="targetPoint" />
            <Array as="points">
              <mxPoint x="3080" y="5684" />
              <mxPoint x="3080" y="5734" />
              <mxPoint x="3078" y="5734" />
            </Array>
          </mxGeometry>
        </mxCell>
        <mxCell id="G22Vl-74bS2wPeGoAGa7-39" value="&lt;p style=&quot;margin:0px;margin-top:4px;text-align:center;&quot;&gt;&lt;b&gt;CLI&lt;/b&gt;&lt;/p&gt;&lt;hr size=&quot;1&quot;/&gt;&lt;p style=&quot;margin:0 0 0 4px;line-height:1.6;&quot;&gt;+ CLI(ClientController): &lt;/p&gt;&lt;hr size=&quot;1&quot;/&gt;&lt;p style=&quot;margin:0 0 0 4px;line-height:1.6;&quot;&gt;- in: Scanner&lt;br/&gt;- controller: ClientController&lt;br/&gt;- scene: CLIState&lt;/p&gt;&lt;hr size=&quot;1&quot;/&gt;&lt;p style=&quot;margin:0 0 0 4px;line-height:1.6;&quot;&gt;+ idNotInGame(): void&lt;br/&gt;+ tooManyPlayers(): void&lt;br/&gt;+ nameChangeFailed(): void&lt;br/&gt;+ displayCommonAchievements(): void&lt;br/&gt;+ deckIsEmpty(): void&lt;br/&gt;- manuscriptCoordString(int): String&lt;br/&gt;+ gameStarted(): void&lt;br/&gt;+ updateReady(String, boolean): void&lt;br/&gt;+ needName(): void&lt;br/&gt;+ cantDrawAchievementCards(): void&lt;br/&gt;+ startingCardChosen(String): void&lt;br/&gt;+ nameChanged(): void&lt;br/&gt;+ displayCard(String, int, int): void&lt;br/&gt;+ chooseSecretAchievement(List&amp;lt;AchievementCard&amp;gt;): void&lt;br/&gt;+ cardNotPlaceable(): void&lt;br/&gt;+ otherPlayerInitialHand(String): void&lt;br/&gt;+ needColor(): void&lt;br/&gt;+ invalidColor(): void&lt;br/&gt;+ endGameStarted(): void&lt;br/&gt;+ printOnNewLine(String): void&lt;br/&gt;+ displayNewCardInHand(): void&lt;br/&gt;+ gameNotYetStarted(): void&lt;br/&gt;+ gameAlreadyStarted(): void&lt;br/&gt;+ colorChanged(): void&lt;br/&gt;+ chat(Message): void&lt;br/&gt;+ otherPlayerDraw(String, Decks, DeckPosition): void&lt;br/&gt;+ displayPlayerColors(): void&lt;br/&gt;+ needNameOrColor(): void&lt;br/&gt;+ displayHand(): void&lt;br/&gt;+ displaySecretAchievement(): void&lt;br/&gt;+ backToLobby(): void&lt;br/&gt;+ playerDisconnected(String): void&lt;br/&gt;+ displayId(): void&lt;br/&gt;+ displayTurn(): void&lt;br/&gt;+ playerRemoved(String): void&lt;br/&gt;+ successfulConnection(): void&lt;br/&gt;+ invalidCardForAction(Actions): void&lt;br/&gt;+ chatMessageIsEmpty(): void&lt;br/&gt;+ connectionFailed(): void&lt;br/&gt;+ displayLobby(): void&lt;br/&gt;+ playerAlreadyPlaying(): void&lt;br/&gt;+ colorChangeFailed(): void&lt;br/&gt;+ alreadyDone(Actions): void&lt;br/&gt;+ displayPlayerOrder(): void&lt;br/&gt;+ displayBoardCards(): void&lt;br/&gt;+ doFirst(Actions): void&lt;br/&gt;+ secretAchievementChosen(String): void&lt;br/&gt;+ gameAlreadyFinished(): void&lt;br/&gt;+ displayDeckSizes(): void&lt;br/&gt;+ changeScene(CLIState): void&lt;br/&gt;+ notYetGivenCard(Actions): void&lt;br/&gt;+ newTurn(): void&lt;br/&gt;+ notYourTurn(): void&lt;br/&gt;+ joinServer(String, int): void&lt;br/&gt;+ clear(): void&lt;br/&gt;+ displayPlayerPoints(String): void&lt;br/&gt;+ printPromptLine(): void&lt;br/&gt;+ displayLeaderboard(LinkedHashMap&amp;lt;String, Integer&amp;gt;): void&lt;br/&gt;+ chooseStartingCardFace(Card): void&lt;br/&gt;+ otherPlayerReconnected(String): void&lt;br/&gt;+ run(): void&lt;br/&gt;+ unavailableColor(): void&lt;br/&gt;+ setRMIMode(boolean): void&lt;br/&gt;+ displayManuscript(String): void&lt;br/&gt;+ displayNewPlayer(): void&lt;br/&gt;+ displayGameInfo(): void&lt;br/&gt;+ askConnectionMode(): void&lt;br/&gt;+ cardPlaced(String, CornerCardFace, int, int): void&lt;/p&gt;" style="verticalAlign=top;align=left;overflow=fill;fontSize=14;fontFamily=Helvetica;html=1;rounded=0;shadow=0;comic=0;labelBackgroundColor=none;strokeWidth=1;fillColor=#7EA6E0;" parent="1" vertex="1">
          <mxGeometry x="8319" y="4005.5" width="419" height="1771" as="geometry" />
        </mxCell>
        <mxCell id="G22Vl-74bS2wPeGoAGa7-41" value="&lt;p style=&quot;margin:0px;margin-top:4px;text-align:center;&quot;&gt;&lt;i&gt;&amp;lt;&amp;lt;interface&amp;gt;&amp;gt;&lt;/i&gt;&lt;br/&gt;&lt;b&gt;ClientConnectionHandler&lt;/b&gt;&lt;/p&gt;&lt;hr size=&quot;1&quot;/&gt;&lt;p style=&quot;margin:0 0 0 4px;line-height:1.6;&quot;&gt;+ sendMessage(ToServerMessage): void&lt;br/&gt;+ executeMessage(ToClientMessage): void&lt;br/&gt;+ ping(): boolean&lt;/p&gt;" style="verticalAlign=top;align=left;overflow=fill;fontSize=14;fontFamily=Helvetica;html=1;rounded=0;shadow=0;comic=0;labelBackgroundColor=none;strokeWidth=1;fillColor=#EA6B66;" parent="1" vertex="1">
          <mxGeometry x="5380" y="4995.5" width="301" height="139" as="geometry" />
        </mxCell>
        <mxCell id="G22Vl-74bS2wPeGoAGa7-42" value="&lt;p style=&quot;margin:0px;margin-top:4px;text-align:center;&quot;&gt;&lt;b&gt;ClientConnectionHandlerRMI&lt;/b&gt;&lt;/p&gt;&lt;hr size=&quot;1&quot;/&gt;&lt;p style=&quot;margin:0 0 0 4px;line-height:1.6;&quot;&gt;+ ClientConnectionHandlerRMI(int): &lt;/p&gt;&lt;hr size=&quot;1&quot;/&gt;&lt;p style=&quot;margin:0 0 0 4px;line-height:1.6;&quot;&gt;~ rmi_client_port: int&lt;br/&gt;~ registry: Registry&lt;br/&gt;~ pingServer: PingServer&lt;br/&gt;~ server: ServerConnectionHandler&lt;br/&gt;~ stub: ClientConnectionHandler&lt;br/&gt;~ serverRegistry: Registry&lt;br/&gt;- controller: ClientController&lt;/p&gt;&lt;hr size=&quot;1&quot;/&gt;&lt;p style=&quot;margin:0 0 0 4px;line-height:1.6;&quot;&gt;+ setServer(String, int): void&lt;br/&gt;+ setRmi_client_port(int): void&lt;br/&gt;+ setController(ClientController): void&lt;br/&gt;+ setServer(ServerConnectionHandler): void&lt;br/&gt;+ reset(): void&lt;br/&gt;+ executeMessage(ToClientMessage): void&lt;br/&gt;+ ping(): boolean&lt;br/&gt;+ pingServer(): void&lt;br/&gt;+ sendMessage(ToServerMessage): void&lt;/p&gt;" style="verticalAlign=top;align=left;overflow=fill;fontSize=14;fontFamily=Helvetica;html=1;rounded=0;shadow=0;comic=0;labelBackgroundColor=none;strokeWidth=1;fillColor=#EA6B66;" parent="1" vertex="1">
          <mxGeometry x="5790.5" y="5209.5" width="308" height="449" as="geometry" />
        </mxCell>
        <mxCell id="G22Vl-74bS2wPeGoAGa7-43" value="&lt;p style=&quot;margin:0px;margin-top:4px;text-align:center;&quot;&gt;&lt;b&gt;ClientConnectionHandlerSOCKET&lt;/b&gt;&lt;/p&gt;&lt;hr size=&quot;1&quot;/&gt;&lt;p style=&quot;margin:0 0 0 4px;line-height:1.6;&quot;&gt;+ ClientConnectionHandlerSOCKET(ClientController): &lt;/p&gt;&lt;hr size=&quot;1&quot;/&gt;&lt;p style=&quot;margin:0 0 0 4px;line-height:1.6;&quot;&gt;+ sender: ClientSender&lt;br/&gt;- controller: ClientController&lt;br/&gt;- clientSocket: Socket&lt;br/&gt;+ receiver: ClientReceiver&lt;/p&gt;&lt;hr size=&quot;1&quot;/&gt;&lt;p style=&quot;margin:0 0 0 4px;line-height:1.6;&quot;&gt;+ executeMessage(ToClientMessage): void&lt;br/&gt;+ run(): void&lt;br/&gt;+ ping(): boolean&lt;br/&gt;+ setSocket(String, int): void&lt;br/&gt;+ sendMessage(ToServerMessage): void&lt;/p&gt;" style="verticalAlign=top;align=left;overflow=fill;fontSize=14;fontFamily=Helvetica;html=1;rounded=0;shadow=0;comic=0;labelBackgroundColor=none;strokeWidth=1;fillColor=#EA6B66;" parent="1" vertex="1">
          <mxGeometry x="5760" y="4629.5" width="369" height="289" as="geometry" />
        </mxCell>
        <mxCell id="G22Vl-74bS2wPeGoAGa7-44" value="&lt;p style=&quot;margin:0px;margin-top:4px;text-align:center;&quot;&gt;&lt;i&gt;&amp;lt;&amp;lt;interface&amp;gt;&amp;gt;&lt;/i&gt;&lt;br/&gt;&lt;b&gt;ClientController&lt;/b&gt;&lt;/p&gt;&lt;hr size=&quot;1&quot;/&gt;&lt;p style=&quot;margin:0 0 0 4px;line-height:1.6;&quot;&gt;+ giveInitialHand(List&amp;lt;Card&amp;gt;): void&lt;br/&gt;+ otherPlayerReconnected(String): void&lt;br/&gt;+ nameNotYetSet(): void&lt;br/&gt;+ drawOtherPlayer(String, Decks, DeckPosition, List&amp;lt;Card&amp;gt;): void&lt;br/&gt;+ chooseSecretAchievement(int): void&lt;br/&gt;+ getLeaderboard(): Map&amp;lt;String, Integer&amp;gt;&lt;br/&gt;+ playerAlreadyPlaying(): void&lt;br/&gt;+ playerRemoved(String): void&lt;br/&gt;+ setName(Boolean): void&lt;br/&gt;+ getPlayerNames(): List&amp;lt;String&amp;gt;&lt;br/&gt;+ main(UI): void&lt;br/&gt;+ setColor(boolean, Color): void&lt;br/&gt;+ sendChatMessage(String): void&lt;br/&gt;+ getDeckSize(Decks): int&lt;br/&gt;+ displayLeaderboard(LinkedHashMap&amp;lt;String, Integer&amp;gt;): void&lt;br/&gt;+ clear(): void&lt;br/&gt;+ getChat(): List&amp;lt;Message&amp;gt;&lt;br/&gt;+ giveDrawnCard(Card): void&lt;br/&gt;+ updatePlayerColors(Color, String): void&lt;br/&gt;+ getHand(): List&amp;lt;Card&amp;gt;&lt;br/&gt;+ setSecretCard(int): void&lt;br/&gt;+ clearUI(): void&lt;br/&gt;+ getPotentialSecretAchievements(): List&amp;lt;AchievementCard&amp;gt;&lt;br/&gt;+ askSetColor(Color): void&lt;br/&gt;+ getMyId(): String&lt;br/&gt;+ loadLobbyInfo(String, List&amp;lt;String&amp;gt;, Map&amp;lt;String, Color&amp;gt;, Map&amp;lt;String, Boolean&amp;gt;, Boolean): void&lt;br/&gt;+ askPlayCard(int, Face, int, int): void&lt;br/&gt;+ chooseStartingCardFace(Face): void&lt;br/&gt;+ setMyColor(Color): void&lt;br/&gt;+ setRMIMode(boolean): void&lt;br/&gt;+ setEndGame(): void&lt;br/&gt;+ setGameInfo(String, List&amp;lt;AchievementCard&amp;gt;, Deck&amp;lt;GoldCard&amp;gt;, Deck&amp;lt;ResourceCard&amp;gt;, String, AchievementCard, List&amp;lt;Card&amp;gt;, int, List&amp;lt;Player&amp;gt;, Chat, GameState): void&lt;br/&gt;+ getMyName(): String&lt;br/&gt;+ invalidName(): void&lt;br/&gt;+ startingCardChosen(String, CornerCardFace): void&lt;br/&gt;+ startGame(List&amp;lt;GoldCard&amp;gt;, List&amp;lt;ResourceCard&amp;gt;): void&lt;br/&gt;+ askDrawCard(Decks, DeckPosition): void&lt;br/&gt;+ addChatMessage(Message): void&lt;br/&gt;+ notYetGivenCard(Actions): void&lt;br/&gt;+ getActivePlayer(): Player&lt;br/&gt;+ placeCard(String, CornerCardFace, int, int, int): void&lt;br/&gt;+ getPlayers(): List&amp;lt;Player&amp;gt;&lt;br/&gt;+ getPlayerByName(String): Player&lt;br/&gt;+ gameAlreadyStarted(): void&lt;br/&gt;+ getSecretAchievement(): AchievementCard&lt;br/&gt;+ playerDisconnected(String): void&lt;br/&gt;+ reconnect(String): void&lt;br/&gt;+ getTurn(): int&lt;br/&gt;+ setId(String): void&lt;br/&gt;+ emptyDeck(): void&lt;br/&gt;+ toDoFirst(Actions): void&lt;br/&gt;+ achievementDeckDrawInvalid(): void&lt;br/&gt;+ getIndexofSecretAchievement(): int&lt;br/&gt;+ getChosenHandCard(): Integer&lt;br/&gt;+ chatMessageIsEmpty(): void&lt;br/&gt;+ invalidCard(Actions): void&lt;br/&gt;+ giveOtherPlayerInitialHand(String): void&lt;br/&gt;+ updatePlayerOrder(List&amp;lt;String&amp;gt;): void&lt;br/&gt;+ gameNotYetStarted(): void&lt;br/&gt;+ loadGame(List&amp;lt;AchievementCard&amp;gt;, Deck&amp;lt;GoldCard&amp;gt;, Deck&amp;lt;ResourceCard&amp;gt;, AchievementCard, List&amp;lt;Card&amp;gt;, int, List&amp;lt;Player&amp;gt;, Chat, GameState, String): void&lt;br/&gt;+ gameAlreadyFinished(): void&lt;br/&gt;+ tooManyPlayers(): void&lt;br/&gt;+ giveAchievementCards(List&amp;lt;AchievementCard&amp;gt;, List&amp;lt;AchievementCard&amp;gt;): void&lt;br/&gt;+ setReady(): void&lt;br/&gt;+ alreadyDone(Actions): void&lt;br/&gt;+ serverDisconnected(): void&lt;br/&gt;+ setName(String): void&lt;br/&gt;+ askSetName(String): void&lt;br/&gt;+ getCommonAchievements(): List&amp;lt;AchievementCard&amp;gt;&lt;br/&gt;+ getGameState(): GameState&lt;br/&gt;+ giveStartingCard(Card): void&lt;br/&gt;+ newPlayer(List&amp;lt;String&amp;gt;): void&lt;br/&gt;+ setChosenHandCard(Integer): void&lt;br/&gt;+ colorNotYetSet(): void&lt;br/&gt;+ notYourTurn(): void&lt;br/&gt;+ cardNotPlaceable(): void&lt;br/&gt;+ joinSavedGame(String): void&lt;br/&gt;+ newTurn(String, int): void&lt;br/&gt;+ getMyColor(): Color&lt;br/&gt;+ getAvailableColors(): List&amp;lt;Color&amp;gt;&lt;br/&gt;+ idNotInGame(): void&lt;br/&gt;+ isSavedGame(): boolean&lt;br/&gt;+ joinServer(String, int): void&lt;br/&gt;+ setSecretCard(String): void&lt;br/&gt;+ getBoardCards(Decks): List&amp;lt;Card&amp;gt;&lt;br/&gt;+ updatePlayerReady(boolean, String): void&lt;/p&gt;" style="verticalAlign=top;align=left;overflow=fill;fontSize=14;fontFamily=Helvetica;html=1;rounded=0;shadow=0;comic=0;labelBackgroundColor=none;strokeWidth=1;fillColor=#99FF99;" parent="1" vertex="1">
          <mxGeometry x="6830" y="4255.5" width="495" height="2103" as="geometry" />
        </mxCell>
        <mxCell id="G22Vl-74bS2wPeGoAGa7-46" value="&lt;p style=&quot;margin:0px;margin-top:4px;text-align:center;&quot;&gt;&lt;b&gt;ClientReceiver&lt;/b&gt;&lt;/p&gt;&lt;hr size=&quot;1&quot;/&gt;&lt;p style=&quot;margin:0 0 0 4px;line-height:1.6;&quot;&gt;+ ClientReceiver(Socket, ClientController): &lt;/p&gt;&lt;hr size=&quot;1&quot;/&gt;&lt;p style=&quot;margin:0 0 0 4px;line-height:1.6;&quot;&gt;- in: ObjectInputStream&lt;br/&gt;- controller: ClientController&lt;/p&gt;&lt;hr size=&quot;1&quot;/&gt;&lt;p style=&quot;margin:0 0 0 4px;line-height:1.6;&quot;&gt;+ run(): void&lt;/p&gt;" style="verticalAlign=top;align=left;overflow=fill;fontSize=14;fontFamily=Helvetica;html=1;rounded=0;shadow=0;comic=0;labelBackgroundColor=none;strokeWidth=1;fillColor=#EA6B66;" parent="1" vertex="1">
          <mxGeometry x="6030" y="4315.5" width="300" height="156" as="geometry" />
        </mxCell>
        <mxCell id="G22Vl-74bS2wPeGoAGa7-47" value="&lt;p style=&quot;margin:0px;margin-top:4px;text-align:center;&quot;&gt;&lt;b&gt;ClientSender&lt;/b&gt;&lt;/p&gt;&lt;hr size=&quot;1&quot;/&gt;&lt;p style=&quot;margin:0 0 0 4px;line-height:1.6;&quot;&gt;+ ClientSender(): &lt;/p&gt;&lt;hr size=&quot;1&quot;/&gt;&lt;p style=&quot;margin:0 0 0 4px;line-height:1.6;&quot;&gt;- out: ObjectOutputStream&lt;/p&gt;&lt;hr size=&quot;1&quot;/&gt;&lt;p style=&quot;margin:0 0 0 4px;line-height:1.6;&quot;&gt;+ setOutputBuffer(ObjectOutputStream): void&lt;br/&gt;+ sendMessage(ToServerMessage): void&lt;/p&gt;" style="verticalAlign=top;align=left;overflow=fill;fontSize=14;fontFamily=Helvetica;html=1;rounded=0;shadow=0;comic=0;labelBackgroundColor=none;strokeWidth=1;fillColor=#EA6B66;" parent="1" vertex="1">
          <mxGeometry x="5600" y="4315.5" width="314" height="156" as="geometry" />
        </mxCell>
        <mxCell id="G22Vl-74bS2wPeGoAGa7-48" value="&lt;p style=&quot;margin:0px;margin-top:4px;text-align:center;&quot;&gt;&lt;b&gt;Deck&lt;T&gt;&lt;/b&gt;&lt;/p&gt;&lt;hr size=&quot;1&quot;/&gt;&lt;p style=&quot;margin:0 0 0 4px;line-height:1.6;&quot;&gt;+ Deck(): &lt;br/&gt;+ Deck(int, List&amp;lt;T&amp;gt;): &lt;br/&gt;+ Deck(List&amp;lt;T&amp;gt;): &lt;/p&gt;&lt;hr size=&quot;1&quot;/&gt;&lt;p style=&quot;margin:0 0 0 4px;line-height:1.6;&quot;&gt;- deckSize: int&lt;br/&gt;- boardCards: List&amp;lt;T&amp;gt;&lt;/p&gt;&lt;hr size=&quot;1&quot;/&gt;&lt;p style=&quot;margin:0 0 0 4px;line-height:1.6;&quot;&gt;+ getDeckSize(): int&lt;br/&gt;+ setDeckSize(int): void&lt;br/&gt;+ getBoardCards(): List&amp;lt;T&amp;gt;&lt;br/&gt;+ setBoardCards(List&amp;lt;Card&amp;gt;): void&lt;/p&gt;" style="verticalAlign=top;align=left;overflow=fill;fontSize=14;fontFamily=Helvetica;html=1;rounded=0;shadow=0;comic=0;labelBackgroundColor=none;strokeWidth=1;" parent="1" vertex="1">
          <mxGeometry x="7200" y="3753.5" width="255" height="257" as="geometry" />
        </mxCell>
        <mxCell id="G22Vl-74bS2wPeGoAGa7-49" value="&lt;p style=&quot;margin:0px;margin-top:4px;text-align:center;&quot;&gt;&lt;b&gt;GUI&lt;/b&gt;&lt;/p&gt;&lt;hr size=&quot;1&quot;/&gt;&lt;p style=&quot;margin:0 0 0 4px;line-height:1.6;&quot;&gt;+ GUI(ClientController): &lt;/p&gt;&lt;hr size=&quot;1&quot;/&gt;&lt;p style=&quot;margin:0 0 0 4px;line-height:1.6;&quot;&gt;- controller: ClientController&lt;br/&gt;- sceneMap: Map&amp;lt;SceneName, Scene&amp;gt;&lt;br/&gt;- stage: Stage&lt;br/&gt;- sceneControllerMap: Map&amp;lt;SceneName, SceneController&amp;gt;&lt;/p&gt;&lt;hr size=&quot;1&quot;/&gt;&lt;p style=&quot;margin:0 0 0 4px;line-height:1.6;&quot;&gt;+ needNameOrColor(): void&lt;br/&gt;+ otherPlayerReconnected(String): void&lt;br/&gt;+ generateScenes(Stage): void&lt;br/&gt;+ playerAlreadyPlaying(): void&lt;br/&gt;- listViewSetUpdate(): void&lt;br/&gt;+ displayCommonAchievements(): void&lt;br/&gt;+ colorChanged(): void&lt;br/&gt;+ endGameStarted(): void&lt;br/&gt;+ gameAlreadyStarted(): void&lt;br/&gt;+ chatMessageIsEmpty(): void&lt;br/&gt;+ doFirst(Actions): void&lt;br/&gt;+ needColor(): void&lt;br/&gt;+ playerRemoved(String): void&lt;br/&gt;+ gameStarted(): void&lt;br/&gt;+ chat(Message): void&lt;br/&gt;+ successfulConnection(): void&lt;br/&gt;+ cantDrawAchievementCards(): void&lt;br/&gt;+ gameAlreadyFinished(): void&lt;br/&gt;+ gameNotYetStarted(): void&lt;br/&gt;+ startingCardChosen(String): void&lt;br/&gt;+ newTurn(): void&lt;br/&gt;+ displayPlayerOrder(): void&lt;br/&gt;+ displayPlayerColors(): void&lt;br/&gt;+ setStage(Stage): void&lt;br/&gt;+ alreadyDone(Actions): void&lt;br/&gt;+ generateScene(String, SceneName, Stage): void&lt;br/&gt;+ invalidCardForAction(Actions): void&lt;br/&gt;+ playerDisconnected(String): void&lt;br/&gt;+ displayNewCardInHand(): void&lt;br/&gt;+ colorChangeFailed(): void&lt;br/&gt;+ displayPlayerPoints(String): void&lt;br/&gt;+ askConnectionMode(): void&lt;br/&gt;+ displayHand(): void&lt;br/&gt;+ displayGameInfo(): void&lt;br/&gt;+ unavailableColor(): void&lt;br/&gt;+ notYourTurn(): void&lt;br/&gt;+ displayNewPlayer(): void&lt;br/&gt;+ cardPlaced(String, CornerCardFace, int, int): void&lt;br/&gt;+ tooManyPlayers(): void&lt;br/&gt;+ idNotInGame(): void&lt;br/&gt;+ chooseStartingCardFace(Card): void&lt;br/&gt;+ invalidColor(): void&lt;br/&gt;+ secretAchievementChosen(String): void&lt;br/&gt;+ otherPlayerInitialHand(String): void&lt;br/&gt;- regenerateManuscript(): void&lt;br/&gt;+ nameChanged(): void&lt;br/&gt;+ needName(): void&lt;br/&gt;+ deckIsEmpty(): void&lt;br/&gt;+ chooseSecretAchievement(List&amp;lt;AchievementCard&amp;gt;): void&lt;br/&gt;+ cardNotPlaceable(): void&lt;br/&gt;+ getScene(SceneName): Scene&lt;br/&gt;+ displayBoardCards(): void&lt;br/&gt;+ otherPlayerDraw(String, Decks, DeckPosition): void&lt;br/&gt;+ displayLobby(): void&lt;br/&gt;+ connectionFailed(): void&lt;br/&gt;+ updateReady(String, boolean): void&lt;br/&gt;+ displayId(): void&lt;br/&gt;+ clear(): void&lt;br/&gt;+ displayLeaderboard(LinkedHashMap&amp;lt;String, Integer&amp;gt;): void&lt;br/&gt;+ notYetGivenCard(Actions): void&lt;br/&gt;+ nameChangeFailed(): void&lt;/p&gt;" style="verticalAlign=top;align=left;overflow=fill;fontSize=14;fontFamily=Helvetica;html=1;rounded=0;shadow=0;comic=0;labelBackgroundColor=none;strokeWidth=1;fillColor=#7EA6E0;" parent="1" vertex="1">
          <mxGeometry x="8319" y="5894.5" width="419" height="1627" as="geometry" />
        </mxCell>
        <mxCell id="G22Vl-74bS2wPeGoAGa7-51" value="&lt;p style=&quot;margin:0px;margin-top:4px;text-align:center;&quot;&gt;&lt;b&gt;GeneralClientConnectionHandler&lt;/b&gt;&lt;/p&gt;&lt;hr size=&quot;1&quot;/&gt;&lt;p style=&quot;margin:0 0 0 4px;line-height:1.6;&quot;&gt;+ GeneralClientConnectionHandler(ClientController, boolean): &lt;/p&gt;&lt;hr size=&quot;1&quot;/&gt;&lt;p style=&quot;margin:0 0 0 4px;line-height:1.6;&quot;&gt;- trueifRMI: boolean&lt;br/&gt;- clientConnectionHandlerSOCKET: ClientConnectionHandlerSOCKET&lt;br/&gt;- clientConnectionHandlerRMI: ClientConnectionHandlerRMI&lt;br/&gt;- controller: ClientController&lt;/p&gt;&lt;hr size=&quot;1&quot;/&gt;&lt;p style=&quot;margin:0 0 0 4px;line-height:1.6;&quot;&gt;+ setSocket(String, int): void&lt;br/&gt;+ start(): void&lt;br/&gt;+ clear(): void&lt;br/&gt;+ sendMessage(ToServerMessage): void&lt;/p&gt;" style="verticalAlign=top;align=left;overflow=fill;fontSize=14;fontFamily=Helvetica;html=1;rounded=0;shadow=0;comic=0;labelBackgroundColor=none;strokeWidth=1;fillColor=#EA6B66;" parent="1" vertex="1">
          <mxGeometry x="6210" y="4930.5" width="466" height="279" as="geometry" />
        </mxCell>
        <mxCell id="G22Vl-74bS2wPeGoAGa7-55" value="&lt;p style=&quot;margin:0px;margin-top:4px;text-align:center;&quot;&gt;&lt;b&gt;OnBoardCard&lt;/b&gt;&lt;/p&gt;&lt;hr size=&quot;1&quot;/&gt;&lt;p style=&quot;margin:0 0 0 4px;line-height:1.6;&quot;&gt;+ OnBoardCard(Image, int, int, MainBoardSceneController): &lt;/p&gt;&lt;hr size=&quot;1&quot;/&gt;&lt;p style=&quot;margin:0 0 0 4px;line-height:1.6;&quot;&gt;+ BOTTOM_RIGHT: Button&lt;br/&gt;+ onBoardCards: List&amp;lt;OnBoardCard&amp;gt;&lt;br/&gt;+ y: int&lt;br/&gt;+ image: ImageView&lt;br/&gt;+ BOTTOM_LEFT: Button&lt;br/&gt;+ TOP_LEFT: Button&lt;br/&gt;+ TOP_RIGHT: Button&lt;br/&gt;+ x: int&lt;br/&gt;- sceneController: MainBoardSceneController&lt;/p&gt;&lt;hr size=&quot;1&quot;/&gt;&lt;p style=&quot;margin:0 0 0 4px;line-height:1.6;&quot;&gt;+ place(Group): void&lt;br/&gt;~ playCardBottomLeft(): void&lt;br/&gt;~ playCardBottomRight(): void&lt;br/&gt;~ playCardTopLeft(): void&lt;br/&gt;~ playCardTopRight(): void&lt;/p&gt;" style="verticalAlign=top;align=left;overflow=fill;fontSize=14;fontFamily=Helvetica;html=1;rounded=0;shadow=0;comic=0;labelBackgroundColor=none;strokeWidth=1;fillColor=#CDA2BE;" parent="1" vertex="1">
          <mxGeometry x="9690" y="5500" width="408" height="403" as="geometry" />
        </mxCell>
        <mxCell id="G22Vl-74bS2wPeGoAGa7-56" value="&lt;p style=&quot;margin:0px;margin-top:4px;text-align:center;&quot;&gt;&lt;b&gt;OtherPlayerTab&lt;/b&gt;&lt;/p&gt;&lt;hr size=&quot;1&quot;/&gt;&lt;p style=&quot;margin:0 0 0 4px;line-height:1.6;&quot;&gt;+ OtherPlayerTab(String): &lt;/p&gt;&lt;hr size=&quot;1&quot;/&gt;&lt;p style=&quot;margin:0 0 0 4px;line-height:1.6;&quot;&gt;+ scrollPane: ScrollPane&lt;br/&gt;+ group: Group&lt;br/&gt;+ onBoardCardList: List&amp;lt;OnBoardCard&amp;gt;&lt;br/&gt;+ tab: Tab&lt;/p&gt;&lt;hr size=&quot;1&quot;/&gt;&lt;p style=&quot;margin:0 0 0 4px;line-height:1.6;&quot;&gt;+ placeCard(OnBoardCard): void&lt;/p&gt;" style="verticalAlign=top;align=left;overflow=fill;fontSize=14;fontFamily=Helvetica;html=1;rounded=0;shadow=0;comic=0;labelBackgroundColor=none;strokeWidth=1;fillColor=#CDA2BE;" parent="1" vertex="1">
          <mxGeometry x="9690" y="6006" width="283" height="187" as="geometry" />
        </mxCell>
        <mxCell id="G22Vl-74bS2wPeGoAGa7-57" value="&lt;p style=&quot;margin:0px;margin-top:4px;text-align:center;&quot;&gt;&lt;b&gt;PingServer&lt;/b&gt;&lt;/p&gt;&lt;hr size=&quot;1&quot;/&gt;&lt;p style=&quot;margin:0 0 0 4px;line-height:1.6;&quot;&gt;+ PingServer(ClientConnectionHandlerRMI): &lt;/p&gt;&lt;hr size=&quot;1&quot;/&gt;&lt;p style=&quot;margin:0 0 0 4px;line-height:1.6;&quot;&gt;- connectionHandler: ClientConnectionHandlerRMI&lt;br/&gt;- shouldPing: boolean&lt;/p&gt;&lt;hr size=&quot;1&quot;/&gt;&lt;p style=&quot;margin:0 0 0 4px;line-height:1.6;&quot;&gt;+ run(): void&lt;br/&gt;+ stopPinging(): void&lt;/p&gt;" style="verticalAlign=top;align=left;overflow=fill;fontSize=14;fontFamily=Helvetica;html=1;rounded=0;shadow=0;comic=0;labelBackgroundColor=none;strokeWidth=1;fillColor=#EA6B66;" parent="1" vertex="1">
          <mxGeometry x="5780" y="5733.5" width="349" height="161" as="geometry" />
        </mxCell>
        <mxCell id="G22Vl-74bS2wPeGoAGa7-58" value="&lt;p style=&quot;margin:0px;margin-top:4px;text-align:center;&quot;&gt;&lt;b&gt;Player&lt;/b&gt;&lt;/p&gt;&lt;hr size=&quot;1&quot;/&gt;&lt;p style=&quot;margin:0 0 0 4px;line-height:1.6;&quot;&gt;+ Player(String, int, int, boolean, Color, Manuscript): &lt;br/&gt;+ Player(String): &lt;/p&gt;&lt;hr size=&quot;1&quot;/&gt;&lt;p style=&quot;margin:0 0 0 4px;line-height:1.6;&quot;&gt;- achievementPoints: int&lt;br/&gt;- handSize: int&lt;br/&gt;- color: Color&lt;br/&gt;- ready: boolean&lt;br/&gt;- manuscriptPoints: int&lt;br/&gt;- manuscript: Manuscript&lt;br/&gt;- name: String&lt;br/&gt;- active: boolean&lt;/p&gt;&lt;hr size=&quot;1&quot;/&gt;&lt;p style=&quot;margin:0 0 0 4px;line-height:1.6;&quot;&gt;+ setReady(boolean): void&lt;br/&gt;+ getManuscript(): Manuscript&lt;br/&gt;+ setHandSize(int): void&lt;br/&gt;+ getName(): String&lt;br/&gt;+ isReady(): boolean&lt;br/&gt;+ setActive(boolean): void&lt;br/&gt;+ isActive(): boolean&lt;br/&gt;+ getColor(): Color&lt;br/&gt;+ setAchievementPoints(int): void&lt;br/&gt;+ getHandSize(): int&lt;br/&gt;+ getPoints(): int&lt;br/&gt;+ setColor(Color): void&lt;br/&gt;+ getAchievementPoints(): int&lt;br/&gt;+ addManuscriptPoints(int): void&lt;br/&gt;+ addCardToManuscript(int, int, CornerCardFace, int): void&lt;br/&gt;+ initializeManuscript(CornerCardFace): void&lt;/p&gt;" style="verticalAlign=top;align=left;overflow=fill;fontSize=14;fontFamily=Helvetica;html=1;rounded=0;shadow=0;comic=0;labelBackgroundColor=none;strokeWidth=1;" parent="1" vertex="1">
          <mxGeometry x="6720" y="3417.5" width="404" height="665" as="geometry" />
        </mxCell>
        <mxCell id="G22Vl-74bS2wPeGoAGa7-63" value="&lt;p style=&quot;margin:0px;margin-top:4px;text-align:center;&quot;&gt;&lt;i&gt;&amp;lt;&amp;lt;interface&amp;gt;&amp;gt;&lt;/i&gt;&lt;br/&gt;&lt;b&gt;UI&lt;/b&gt;&lt;/p&gt;&lt;hr size=&quot;1&quot;/&gt;&lt;p style=&quot;margin:0 0 0 4px;line-height:1.6;&quot;&gt;+ invalidCardForAction(Actions): void&lt;br/&gt;+ successfulConnection(): void&lt;br/&gt;+ displayPlayerColors(): void&lt;br/&gt;+ newTurn(): void&lt;br/&gt;+ displayGameInfo(): void&lt;br/&gt;+ displayNewPlayer(): void&lt;br/&gt;+ gameStarted(): void&lt;br/&gt;+ unavailableColor(): void&lt;br/&gt;+ otherPlayerReconnected(String): void&lt;br/&gt;+ colorChangeFailed(): void&lt;br/&gt;+ displayBoardCards(): void&lt;br/&gt;+ secretAchievementChosen(String): void&lt;br/&gt;+ nameChanged(): void&lt;br/&gt;+ updateReady(String, boolean): void&lt;br/&gt;+ alreadyDone(Actions): void&lt;br/&gt;+ chooseStartingCardFace(Card): void&lt;br/&gt;+ colorChanged(): void&lt;br/&gt;+ chat(Message): void&lt;br/&gt;+ connectionFailed(): void&lt;br/&gt;+ chooseSecretAchievement(List&amp;lt;AchievementCard&amp;gt;): void&lt;br/&gt;+ idNotInGame(): void&lt;br/&gt;+ gameAlreadyStarted(): void&lt;br/&gt;+ needNameOrColor(): void&lt;br/&gt;+ otherPlayerInitialHand(String): void&lt;br/&gt;+ startingCardChosen(String): void&lt;br/&gt;+ needColor(): void&lt;br/&gt;+ clear(): void&lt;br/&gt;+ displayNewCardInHand(): void&lt;br/&gt;+ chatMessageIsEmpty(): void&lt;br/&gt;+ gameAlreadyFinished(): void&lt;br/&gt;+ nameChangeFailed(): void&lt;br/&gt;+ notYetGivenCard(Actions): void&lt;br/&gt;+ notYourTurn(): void&lt;br/&gt;+ displayCommonAchievements(): void&lt;br/&gt;+ cantDrawAchievementCards(): void&lt;br/&gt;+ displayPlayerOrder(): void&lt;br/&gt;+ doFirst(Actions): void&lt;br/&gt;+ playerRemoved(String): void&lt;br/&gt;+ cardNotPlaceable(): void&lt;br/&gt;+ deckIsEmpty(): void&lt;br/&gt;+ cardPlaced(String, CornerCardFace, int, int): void&lt;br/&gt;+ otherPlayerDraw(String, Decks, DeckPosition): void&lt;br/&gt;+ needName(): void&lt;br/&gt;+ displayPlayerPoints(String): void&lt;br/&gt;+ playerDisconnected(String): void&lt;br/&gt;+ displayId(): void&lt;br/&gt;+ tooManyPlayers(): void&lt;br/&gt;+ invalidColor(): void&lt;br/&gt;+ gameNotYetStarted(): void&lt;br/&gt;+ playerAlreadyPlaying(): void&lt;br/&gt;+ endGameStarted(): void&lt;br/&gt;+ askConnectionMode(): void&lt;br/&gt;+ displayHand(): void&lt;br/&gt;+ displayLeaderboard(LinkedHashMap&amp;lt;String, Integer&amp;gt;): void&lt;br/&gt;+ displayLobby(): void&lt;/p&gt;" style="verticalAlign=top;align=left;overflow=fill;fontSize=14;fontFamily=Helvetica;html=1;rounded=0;shadow=0;comic=0;labelBackgroundColor=none;strokeWidth=1;fillColor=#7EA6E0;" parent="1" vertex="1">
          <mxGeometry x="7730" y="5275.5" width="419" height="1359" as="geometry" />
        </mxCell>
        <mxCell id="G22Vl-74bS2wPeGoAGa7-241" value="&lt;p style=&quot;margin:0px;margin-top:4px;text-align:center;&quot;&gt;&lt;b&gt;ClientHandler&lt;/b&gt;&lt;/p&gt;&lt;hr size=&quot;1&quot;/&gt;&lt;p style=&quot;margin:0 0 0 4px;line-height:1.6;&quot;&gt;+ ClientHandler(ServerConnectionHandlerSOCKET, Socket, Controller): &lt;/p&gt;&lt;hr size=&quot;1&quot;/&gt;&lt;p style=&quot;margin:0 0 0 4px;line-height:1.6;&quot;&gt;- connectionHandler: ServerConnectionHandlerSOCKET&lt;br/&gt;- socket: Socket&lt;br/&gt;- sender: ServerSender&lt;br/&gt;- receiver: ServerReceiver&lt;/p&gt;&lt;hr size=&quot;1&quot;/&gt;&lt;p style=&quot;margin:0 0 0 4px;line-height:1.6;&quot;&gt;+ run(): void&lt;br/&gt;+ getSocketAddress(): String&lt;br/&gt;+ sendMessage(ToClientMessage): void&lt;br/&gt;+ isClosed(): boolean&lt;br/&gt;+ getServerConnectionHandler(): ServerConnectionHandlerSOCKET&lt;/p&gt;" style="verticalAlign=top;align=left;overflow=fill;fontSize=14;fontFamily=Helvetica;html=1;rounded=0;shadow=0;comic=0;labelBackgroundColor=none;strokeWidth=1;fillColor=#9AC7BF;" parent="1" vertex="1">
          <mxGeometry x="4744" y="2825.5" width="455" height="287" as="geometry" />
        </mxCell>
        <mxCell id="G22Vl-74bS2wPeGoAGa7-242" value="&lt;p style=&quot;margin:0px;margin-top:4px;text-align:center;&quot;&gt;&lt;b&gt;GeneralServerConnectionHandler&lt;/b&gt;&lt;/p&gt;&lt;hr size=&quot;1&quot;/&gt;&lt;p style=&quot;margin:0 0 0 4px;line-height:1.6;&quot;&gt;+ GeneralServerConnectionHandler(): &lt;/p&gt;&lt;hr size=&quot;1&quot;/&gt;&lt;p style=&quot;margin:0 0 0 4px;line-height:1.6;&quot;&gt;- disconnectedPlayerIds: List&amp;lt;String&amp;gt;&lt;br/&gt;- serverConnectionHandlerRMI: ServerConnectionHandlerRMI&lt;br/&gt;- serverConnectionHandlerSOCKET: ServerConnectionHandlerSOCKET&lt;br/&gt;- playerID: Map&amp;lt;String, String&amp;gt;&lt;/p&gt;&lt;hr size=&quot;1&quot;/&gt;&lt;p style=&quot;margin:0 0 0 4px;line-height:1.6;&quot;&gt;+ removePlayerByName(String): void&lt;br/&gt;+ getServerConnectionHandlerRMI(): ServerConnectionHandlerRMI&lt;br/&gt;+ clear(): void&lt;br/&gt;+ setController(Controller): void&lt;br/&gt;+ changePlayerId(String, String): void&lt;br/&gt;+ getPlayerNameByID(String): String&lt;br/&gt;+ sendAllMessage(ToClientMessage): void&lt;br/&gt;+ setOnline(String): void&lt;br/&gt;+ getIdByName(String): String&lt;br/&gt;+ sendMessage(ToClientMessage, String): void&lt;br/&gt;+ isIdConnectedToName(String): boolean&lt;br/&gt;+ start(): void&lt;br/&gt;+ isNameConnectedToId(String): Boolean&lt;br/&gt;+ setOffline(String): void&lt;br/&gt;+ isInDisconnectedList(String): boolean&lt;br/&gt;+ getServerConnectionHandler(String): ServerConnectionHandler&lt;br/&gt;+ addPlayerByID(String, String): void&lt;br/&gt;+ getServerConnectionHandler(): ServerConnectionHandler&lt;br/&gt;+ getDisconnectedList(): List&amp;lt;String&amp;gt;&lt;/p&gt;" style="verticalAlign=top;align=left;overflow=fill;fontSize=14;fontFamily=Helvetica;html=1;rounded=0;shadow=0;comic=0;labelBackgroundColor=none;strokeWidth=1;fillColor=#9AC7BF;" parent="1" vertex="1">
          <mxGeometry x="4580" y="3719.5" width="475" height="619" as="geometry" />
        </mxCell>
        <mxCell id="G22Vl-74bS2wPeGoAGa7-243" value="&lt;p style=&quot;margin:0px;margin-top:4px;text-align:center;&quot;&gt;&lt;b&gt;PingPong&lt;/b&gt;&lt;/p&gt;&lt;hr size=&quot;1&quot;/&gt;&lt;p style=&quot;margin:0 0 0 4px;line-height:1.6;&quot;&gt;+ PingPong(GeneralServerConnectionHandler): &lt;/p&gt;&lt;hr size=&quot;1&quot;/&gt;&lt;p style=&quot;margin:0 0 0 4px;line-height:1.6;&quot;&gt;- connectionHandler: GeneralServerConnectionHandler&lt;/p&gt;&lt;hr size=&quot;1&quot;/&gt;&lt;p style=&quot;margin:0 0 0 4px;line-height:1.6;&quot;&gt;+ run(): void&lt;/p&gt;" style="verticalAlign=top;align=left;overflow=fill;fontSize=14;fontFamily=Helvetica;html=1;rounded=0;shadow=0;comic=0;labelBackgroundColor=none;strokeWidth=1;fillColor=#9AC7BF;" parent="1" vertex="1">
          <mxGeometry x="4629" y="4388.5" width="377" height="134" as="geometry" />
        </mxCell>
        <mxCell id="G22Vl-74bS2wPeGoAGa7-244" value="&lt;p style=&quot;margin:0px;margin-top:4px;text-align:center;&quot;&gt;&lt;i&gt;&amp;lt;&amp;lt;interface&amp;gt;&amp;gt;&lt;/i&gt;&lt;br/&gt;&lt;b&gt;ServerConnectionHandler&lt;/b&gt;&lt;/p&gt;&lt;hr size=&quot;1&quot;/&gt;&lt;p style=&quot;margin:0 0 0 4px;line-height:1.6;&quot;&gt;+ sendAllMessage(ToClientMessage): void&lt;br/&gt;+ setController(Controller): void&lt;br/&gt;+ isClientAvailable(String): boolean&lt;br/&gt;+ ping(): boolean&lt;br/&gt;+ sendMessage(ToClientMessage, String): void&lt;br/&gt;+ executeMessage(ToServerMessage): void&lt;br/&gt;+ killClient(String): void&lt;br/&gt;+ join(int): LobbyPlayersMessage&lt;/p&gt;" style="verticalAlign=top;align=left;overflow=fill;fontSize=14;fontFamily=Helvetica;html=1;rounded=0;shadow=0;comic=0;labelBackgroundColor=none;strokeWidth=1;fillColor=#9AC7BF;" parent="1" vertex="1">
          <mxGeometry x="4386" y="2851.5" width="329" height="231" as="geometry" />
        </mxCell>
        <mxCell id="G22Vl-74bS2wPeGoAGa7-245" value="&lt;p style=&quot;margin:0px;margin-top:4px;text-align:center;&quot;&gt;&lt;b&gt;ServerConnectionHandlerRMI&lt;/b&gt;&lt;/p&gt;&lt;hr size=&quot;1&quot;/&gt;&lt;p style=&quot;margin:0 0 0 4px;line-height:1.6;&quot;&gt;+ ServerConnectionHandlerRMI(): &lt;/p&gt;&lt;hr size=&quot;1&quot;/&gt;&lt;p style=&quot;margin:0 0 0 4px;line-height:1.6;&quot;&gt;~ registry: Registry&lt;br/&gt;~ clients: Map&amp;lt;String, ClientConnectionHandler&amp;gt;&lt;br/&gt;- port: int&lt;br/&gt;~ stub: ServerConnectionHandler&lt;br/&gt;~ controller: Controller&lt;/p&gt;&lt;hr size=&quot;1&quot;/&gt;&lt;p style=&quot;margin:0 0 0 4px;line-height:1.6;&quot;&gt;+ sendAllMessage(ToClientMessage): void&lt;br/&gt;+ isClientAvailable(String): boolean&lt;br/&gt;+ ping(String): void&lt;br/&gt;- startServer(int): boolean&lt;br/&gt;+ sendMessage(ToClientMessage, String): void&lt;br/&gt;+ join(int): LobbyPlayersMessage&lt;br/&gt;+ killClient(String): void&lt;br/&gt;- askForPort(): void&lt;br/&gt;+ pingAll(): void&lt;br/&gt;+ ping(): boolean&lt;br/&gt;+ setController(Controller): void&lt;br/&gt;+ executeMessage(ToServerMessage): void&lt;/p&gt;" style="verticalAlign=top;align=left;overflow=fill;fontSize=14;fontFamily=Helvetica;html=1;rounded=0;shadow=0;comic=0;labelBackgroundColor=none;strokeWidth=1;fillColor=#9AC7BF;" parent="1" vertex="1">
          <mxGeometry x="4380" y="3172.5" width="341" height="475" as="geometry" />
        </mxCell>
        <mxCell id="G22Vl-74bS2wPeGoAGa7-246" value="&lt;p style=&quot;margin:0px;margin-top:4px;text-align:center;&quot;&gt;&lt;b&gt;ServerConnectionHandlerSOCKET&lt;/b&gt;&lt;/p&gt;&lt;hr size=&quot;1&quot;/&gt;&lt;p style=&quot;margin:0 0 0 4px;line-height:1.6;&quot;&gt;+ ServerConnectionHandlerSOCKET(): &lt;/p&gt;&lt;hr size=&quot;1&quot;/&gt;&lt;p style=&quot;margin:0 0 0 4px;line-height:1.6;&quot;&gt;- clients: Map&amp;lt;ClientHandler, String&amp;gt;&lt;br/&gt;- controller: Controller&lt;br/&gt;- port: int&lt;br/&gt;- socket: ServerSocket&lt;/p&gt;&lt;hr size=&quot;1&quot;/&gt;&lt;p style=&quot;margin:0 0 0 4px;line-height:1.6;&quot;&gt;+ join(int): LobbyPlayersMessage&lt;br/&gt;+ isClientAvailable(String): boolean&lt;br/&gt;+ sendAllMessage(ToClientMessage): void&lt;br/&gt;+ ping(): boolean&lt;br/&gt;+ sendMessage(ToClientMessage, String): void&lt;br/&gt;+ getConnectedThreads(): List&amp;lt;ClientHandler&amp;gt;&lt;br/&gt;- askForPort(): void&lt;br/&gt;+ killClient(String): void&lt;br/&gt;+ setController(Controller): void&lt;br/&gt;+ getThreadName(ClientHandler): String&lt;br/&gt;+ executeMessage(ToServerMessage): void&lt;br/&gt;+ getController(): Controller&lt;br/&gt;+ run(): void&lt;br/&gt;- startServer(int): boolean&lt;/p&gt;" style="verticalAlign=top;align=left;overflow=fill;fontSize=14;fontFamily=Helvetica;html=1;rounded=0;shadow=0;comic=0;labelBackgroundColor=none;strokeWidth=1;fillColor=#9AC7BF;" parent="1" vertex="1">
          <mxGeometry x="4871" y="3160.5" width="329" height="499" as="geometry" />
        </mxCell>
        <mxCell id="G22Vl-74bS2wPeGoAGa7-247" value="&lt;p style=&quot;margin:0px;margin-top:4px;text-align:center;&quot;&gt;&lt;b&gt;ServerReceiver&lt;/b&gt;&lt;/p&gt;&lt;hr size=&quot;1&quot;/&gt;&lt;p style=&quot;margin:0 0 0 4px;line-height:1.6;&quot;&gt;+ ServerReceiver(ClientHandler, Socket, Controller): &lt;/p&gt;&lt;hr size=&quot;1&quot;/&gt;&lt;p style=&quot;margin:0 0 0 4px;line-height:1.6;&quot;&gt;- controller: Controller&lt;br/&gt;- serverConnectionHandler: ServerConnectionHandlerSOCKET&lt;br/&gt;- clientSocket: Socket&lt;br/&gt;- in: ObjectInputStream&lt;br/&gt;- clientHandler: ClientHandler&lt;/p&gt;&lt;hr size=&quot;1&quot;/&gt;&lt;p style=&quot;margin:0 0 0 4px;line-height:1.6;&quot;&gt;+ run(): void&lt;/p&gt;" style="verticalAlign=top;align=left;overflow=fill;fontSize=14;fontFamily=Helvetica;html=1;rounded=0;shadow=0;comic=0;labelBackgroundColor=none;strokeWidth=1;fillColor=#9AC7BF;" parent="1" vertex="1">
          <mxGeometry x="5200" y="2540" width="423" height="230" as="geometry" />
        </mxCell>
        <mxCell id="G22Vl-74bS2wPeGoAGa7-248" value="&lt;p style=&quot;margin:0px;margin-top:4px;text-align:center;&quot;&gt;&lt;b&gt;ServerSender&lt;/b&gt;&lt;/p&gt;&lt;hr size=&quot;1&quot;/&gt;&lt;p style=&quot;margin:0 0 0 4px;line-height:1.6;&quot;&gt;+ ServerSender(Socket): &lt;/p&gt;&lt;hr size=&quot;1&quot;/&gt;&lt;p style=&quot;margin:0 0 0 4px;line-height:1.6;&quot;&gt;- out: ObjectOutputStream&lt;/p&gt;&lt;hr size=&quot;1&quot;/&gt;&lt;p style=&quot;margin:0 0 0 4px;line-height:1.6;&quot;&gt;+ sendMessage(ToClientMessage): void&lt;/p&gt;" style="verticalAlign=top;align=left;overflow=fill;fontSize=14;fontFamily=Helvetica;html=1;rounded=0;shadow=0;comic=0;labelBackgroundColor=none;strokeWidth=1;fillColor=#9AC7BF;" parent="1" vertex="1">
          <mxGeometry x="4830" y="2572.5" width="283" height="142" as="geometry" />
        </mxCell>
        <mxCell id="G22Vl-74bS2wPeGoAGa7-249" value="" style="html=1;rounded=1;edgeStyle=orthogonalEdgeStyle;dashed=0;startArrow=diamondThinstartSize=12;endArrow=openThin;endSize=12;strokeColor=#595959;exitX=1.000;exitY=0.500;exitDx=0;exitDy=0;entryX=1.000;entryY=0.500;entryDx=0;entryDy=0;" parent="1" source="G22Vl-74bS2wPeGoAGa7-241" target="G22Vl-74bS2wPeGoAGa7-246" edge="1">
          <mxGeometry width="50" height="50" relative="1" as="geometry">
            <Array as="points">
              <mxPoint x="5392" y="2967.5" />
              <mxPoint x="5392" y="3410.5" />
            </Array>
          </mxGeometry>
        </mxCell>
        <mxCell id="G22Vl-74bS2wPeGoAGa7-259" value="" style="html=1;rounded=1;edgeStyle=orthogonalEdgeStyle;dashed=1;startArrow=none;endArrow=openThin;endSize=12;strokeColor=#595959;exitX=0.500;exitY=0.000;exitDx=0;exitDy=0;entryX=0.500;entryY=1.000;entryDx=0;entryDy=0;" parent="1" source="G22Vl-74bS2wPeGoAGa7-241" target="G22Vl-74bS2wPeGoAGa7-248" edge="1">
          <mxGeometry width="50" height="50" relative="1" as="geometry">
            <Array as="points" />
          </mxGeometry>
        </mxCell>
        <mxCell id="G22Vl-74bS2wPeGoAGa7-261" value="" style="html=1;rounded=1;edgeStyle=orthogonalEdgeStyle;dashed=0;startArrow=diamondThinstartSize=12;endArrow=openThin;endSize=12;strokeColor=#595959;exitX=0.467;exitY=0.000;exitDx=0;exitDy=0;entryX=0.447;entryY=1.000;entryDx=0;entryDy=0;" parent="1" source="G22Vl-74bS2wPeGoAGa7-241" target="G22Vl-74bS2wPeGoAGa7-248" edge="1">
          <mxGeometry width="50" height="50" relative="1" as="geometry">
            <Array as="points" />
          </mxGeometry>
        </mxCell>
        <mxCell id="G22Vl-74bS2wPeGoAGa7-265" value="" style="html=1;rounded=1;edgeStyle=orthogonalEdgeStyle;dashed=1;startArrow=none;endArrow=openThin;endSize=12;strokeColor=#595959;exitX=0.468;exitY=1.000;exitDx=0;exitDy=0;entryX=0.460;entryY=0.000;entryDx=0;entryDy=0;" parent="1" source="G22Vl-74bS2wPeGoAGa7-242" target="G22Vl-74bS2wPeGoAGa7-243" edge="1">
          <mxGeometry width="50" height="50" relative="1" as="geometry">
            <Array as="points" />
          </mxGeometry>
        </mxCell>
        <mxCell id="G22Vl-74bS2wPeGoAGa7-267" value="" style="html=1;rounded=1;edgeStyle=orthogonalEdgeStyle;dashed=0;startArrow=diamondThinstartSize=12;endArrow=openThin;endSize=12;strokeColor=#595959;exitX=0.016;exitY=0.000;exitDx=0;exitDy=0;entryX=0.608;entryY=1.000;entryDx=0;entryDy=0;" parent="1" source="G22Vl-74bS2wPeGoAGa7-242" target="G22Vl-74bS2wPeGoAGa7-245" edge="1">
          <mxGeometry width="50" height="50" relative="1" as="geometry">
            <Array as="points" />
          </mxGeometry>
        </mxCell>
        <mxCell id="G22Vl-74bS2wPeGoAGa7-271" value="" style="html=1;rounded=1;edgeStyle=orthogonalEdgeStyle;dashed=1;startArrow=none;endArrow=openThin;endSize=12;strokeColor=#595959;exitX=0.047;exitY=0.000;exitDx=0;exitDy=0;entryX=0.652;entryY=1.000;entryDx=0;entryDy=0;" parent="1" source="G22Vl-74bS2wPeGoAGa7-242" target="G22Vl-74bS2wPeGoAGa7-245" edge="1">
          <mxGeometry width="50" height="50" relative="1" as="geometry">
            <Array as="points" />
          </mxGeometry>
        </mxCell>
        <mxCell id="G22Vl-74bS2wPeGoAGa7-273" value="" style="html=1;rounded=1;edgeStyle=orthogonalEdgeStyle;dashed=1;startArrow=none;endArrow=openThin;endSize=12;strokeColor=#595959;exitX=0.959;exitY=0.000;exitDx=0;exitDy=0;entryX=0.500;entryY=1.000;entryDx=0;entryDy=0;" parent="1" source="G22Vl-74bS2wPeGoAGa7-242" target="G22Vl-74bS2wPeGoAGa7-246" edge="1">
          <mxGeometry width="50" height="50" relative="1" as="geometry">
            <Array as="points" />
          </mxGeometry>
        </mxCell>
        <mxCell id="G22Vl-74bS2wPeGoAGa7-275" value="" style="html=1;rounded=1;edgeStyle=orthogonalEdgeStyle;dashed=0;startArrow=diamondThinstartSize=12;endArrow=openThin;endSize=12;strokeColor=#595959;exitX=1.000;exitY=0.500;exitDx=0;exitDy=0;entryX=1.000;entryY=0.500;entryDx=0;entryDy=0;" parent="1" source="G22Vl-74bS2wPeGoAGa7-242" target="G22Vl-74bS2wPeGoAGa7-246" edge="1">
          <mxGeometry width="50" height="50" relative="1" as="geometry">
            <Array as="points">
              <mxPoint x="5392" y="4029.5" />
              <mxPoint x="5392" y="3410.5" />
            </Array>
          </mxGeometry>
        </mxCell>
        <mxCell id="G22Vl-74bS2wPeGoAGa7-279" value="" style="html=1;rounded=1;edgeStyle=orthogonalEdgeStyle;dashed=0;startArrow=diamondThinstartSize=12;endArrow=openThin;endSize=12;strokeColor=#595959;exitX=0.500;exitY=0.000;exitDx=0;exitDy=0;entryX=0.500;entryY=1.000;entryDx=0;entryDy=0;" parent="1" source="G22Vl-74bS2wPeGoAGa7-243" target="G22Vl-74bS2wPeGoAGa7-242" edge="1">
          <mxGeometry width="50" height="50" relative="1" as="geometry">
            <Array as="points" />
          </mxGeometry>
        </mxCell>
        <mxCell id="G22Vl-74bS2wPeGoAGa7-283" value="" style="html=1;rounded=1;edgeStyle=orthogonalEdgeStyle;dashed=1;startArrow=none;endArrow=block;endSize=12;strokeColor=#008200;exitX=0.750;exitY=0.000;exitDx=0;exitDy=0;entryX=0.750;entryY=1.000;entryDx=0;entryDy=0;" parent="1" source="G22Vl-74bS2wPeGoAGa7-245" target="G22Vl-74bS2wPeGoAGa7-244" edge="1">
          <mxGeometry width="50" height="50" relative="1" as="geometry">
            <Array as="points">
              <mxPoint x="4636" y="3139.5" />
              <mxPoint x="4556" y="3139.5" />
              <mxPoint x="4556" y="3129.5" />
              <mxPoint x="4633" y="3129.5" />
            </Array>
          </mxGeometry>
        </mxCell>
        <mxCell id="G22Vl-74bS2wPeGoAGa7-284" value="" style="html=1;rounded=1;edgeStyle=orthogonalEdgeStyle;dashed=0;startArrow=diamondThinstartSize=12;endArrow=openThin;endSize=12;strokeColor=#595959;exitX=0.471;exitY=0.000;exitDx=0;exitDy=0;entryX=0.470;entryY=1.000;entryDx=0;entryDy=0;" parent="1" source="G22Vl-74bS2wPeGoAGa7-245" target="G22Vl-74bS2wPeGoAGa7-244" edge="1">
          <mxGeometry width="50" height="50" relative="1" as="geometry">
            <Array as="points" />
          </mxGeometry>
        </mxCell>
        <mxCell id="G22Vl-74bS2wPeGoAGa7-288" value="" style="html=1;rounded=1;edgeStyle=orthogonalEdgeStyle;dashed=1;startArrow=none;endArrow=openThin;endSize=12;strokeColor=#595959;exitX=0.306;exitY=0.000;exitDx=0;exitDy=0;entryX=0.500;entryY=1.000;entryDx=0;entryDy=0;" parent="1" source="G22Vl-74bS2wPeGoAGa7-246" target="G22Vl-74bS2wPeGoAGa7-241" edge="1">
          <mxGeometry width="50" height="50" relative="1" as="geometry">
            <Array as="points" />
          </mxGeometry>
        </mxCell>
        <mxCell id="G22Vl-74bS2wPeGoAGa7-290" value="" style="html=1;rounded=1;edgeStyle=orthogonalEdgeStyle;dashed=0;startArrow=diamondThinstartSize=12;endArrow=openThin;endSize=12;strokeColor=#595959;exitX=1.000;exitY=0.530;exitDx=0;exitDy=0;entryX=1.000;entryY=0.553;entryDx=0;entryDy=0;" parent="1" source="G22Vl-74bS2wPeGoAGa7-246" target="G22Vl-74bS2wPeGoAGa7-241" edge="1">
          <mxGeometry width="50" height="50" relative="1" as="geometry">
            <Array as="points">
              <mxPoint x="5295" y="3425.5" />
              <mxPoint x="5295" y="2982.5" />
            </Array>
          </mxGeometry>
        </mxCell>
        <mxCell id="G22Vl-74bS2wPeGoAGa7-294" value="" style="html=1;rounded=1;edgeStyle=orthogonalEdgeStyle;dashed=1;startArrow=none;endArrow=block;endSize=12;strokeColor=#008200;exitX=0.167;exitY=0.000;exitDx=0;exitDy=0;entryX=0.750;entryY=1.000;entryDx=0;entryDy=0;" parent="1" source="G22Vl-74bS2wPeGoAGa7-246" target="G22Vl-74bS2wPeGoAGa7-244" edge="1">
          <mxGeometry width="50" height="50" relative="1" as="geometry">
            <Array as="points">
              <mxPoint x="4926" y="3139.5" />
              <mxPoint x="4556" y="3139.5" />
              <mxPoint x="4556" y="3129.5" />
              <mxPoint x="4633" y="3129.5" />
            </Array>
          </mxGeometry>
        </mxCell>
        <mxCell id="G22Vl-74bS2wPeGoAGa7-295" value="" style="html=1;rounded=1;edgeStyle=orthogonalEdgeStyle;dashed=0;startArrow=diamondThinstartSize=12;endArrow=openThin;endSize=12;strokeColor=#595959;exitX=0.500;exitY=1.000;exitDx=0;exitDy=0;entryX=1.000;entryY=0.553;entryDx=0;entryDy=0;" parent="1" target="G22Vl-74bS2wPeGoAGa7-241" edge="1">
          <mxGeometry width="50" height="50" relative="1" as="geometry">
            <Array as="points">
              <mxPoint x="5344" y="2952.5" />
              <mxPoint x="5295" y="2952.5" />
              <mxPoint x="5295" y="2982.5" />
            </Array>
            <mxPoint x="5344.5" y="2772.5" as="sourcePoint" />
          </mxGeometry>
        </mxCell>
        <mxCell id="G22Vl-74bS2wPeGoAGa7-299" value="" style="html=1;rounded=1;edgeStyle=orthogonalEdgeStyle;dashed=0;startArrow=diamondThinstartSize=12;endArrow=openThin;endSize=12;strokeColor=#595959;exitX=0.659;exitY=1.000;exitDx=0;exitDy=0;entryX=1.000;entryY=0.500;entryDx=0;entryDy=0;" parent="1" target="G22Vl-74bS2wPeGoAGa7-246" edge="1">
          <mxGeometry width="50" height="50" relative="1" as="geometry">
            <Array as="points">
              <mxPoint x="5412" y="3569.5" />
              <mxPoint x="5392" y="3569.5" />
              <mxPoint x="5392" y="3410.5" />
            </Array>
            <mxPoint x="5411.757" y="2772.5" as="sourcePoint" />
          </mxGeometry>
        </mxCell>
        <mxCell id="G22Vl-74bS2wPeGoAGa7-307" value="&lt;p style=&quot;margin:0px;margin-top:4px;text-align:center;&quot;&gt;&lt;b&gt;DisconnectionTimer&lt;/b&gt;&lt;/p&gt;&lt;hr size=&quot;1&quot;&gt;&lt;p style=&quot;margin:0 0 0 4px;line-height:1.6;&quot;&gt;+ DisconnectionTimer(Controller, GeneralServerConnectionHandler, String, int)&lt;/p&gt;&lt;hr size=&quot;1&quot;&gt;&lt;p style=&quot;margin:0 0 0 4px;line-height:1.6;&quot;&gt;~ t: Timer&lt;/p&gt;" style="verticalAlign=top;align=left;overflow=fill;fontSize=14;fontFamily=Helvetica;html=1;rounded=0;shadow=0;comic=0;labelBackgroundColor=none;strokeWidth=1;fillColor=#FFE599;" parent="1" vertex="1">
          <mxGeometry x="2615.5" y="3975" width="501" height="95" as="geometry" />
        </mxCell>
        <mxCell id="G22Vl-74bS2wPeGoAGa7-313" value="&lt;p style=&quot;margin:0px;margin-top:4px;text-align:center;&quot;&gt;&lt;i&gt;&amp;lt;&amp;lt;interface&amp;gt;&amp;gt;&lt;/i&gt;&lt;br/&gt;&lt;b&gt;ServerState&lt;/b&gt;&lt;/p&gt;&lt;hr size=&quot;1&quot;/&gt;&lt;p style=&quot;margin:0 0 0 4px;line-height:1.6;&quot;&gt;+ removePlayer(Player): void&lt;br/&gt;+ reactToDisconnection(String): void&lt;br/&gt;+ isInSavedGameLobby(): boolean&lt;br/&gt;+ addSavedPlayer(String, String): void&lt;br/&gt;+ drawCard(Player, DeckPosition, Decks): void&lt;br/&gt;+ addPlayer(String, String): void&lt;br/&gt;+ playCard(Player, int, int, int, CornerCardFace): void&lt;br/&gt;+ reconnect(String, String, Player, Map&amp;lt;Player, List&amp;lt;AchievementCard&amp;gt;&amp;gt;, Map&amp;lt;Player, StartingCard&amp;gt;): void&lt;/p&gt;" style="verticalAlign=top;align=left;overflow=fill;fontSize=14;fontFamily=Helvetica;html=1;rounded=0;shadow=0;comic=0;labelBackgroundColor=none;strokeWidth=1;fillColor=#FFE599;" parent="1" vertex="1">
          <mxGeometry x="3471.5" y="4333" width="688.5" height="237" as="geometry" />
        </mxCell>
        <mxCell id="G22Vl-74bS2wPeGoAGa7-426" value="&lt;p style=&quot;margin:0px;margin-top:4px;text-align:center;&quot;&gt;&lt;i&gt;&amp;lt;&amp;lt;interface&amp;gt;&amp;gt;&lt;/i&gt;&lt;br/&gt;&lt;b&gt;ToClientMessage&lt;/b&gt;&lt;/p&gt;&lt;hr size=&quot;1&quot;/&gt;&lt;p style=&quot;margin:0 0 0 4px;line-height:1.6;&quot;&gt;+ clientExecute(ClientController): void&lt;/p&gt;" style="verticalAlign=top;align=left;overflow=fill;fontSize=14;fontFamily=Helvetica;html=1;rounded=0;shadow=0;comic=0;labelBackgroundColor=none;strokeWidth=1;" parent="1" vertex="1">
          <mxGeometry x="4710" y="5244" width="271" height="79" as="geometry" />
        </mxCell>
        <mxCell id="G22Vl-74bS2wPeGoAGa7-428" value="&lt;p style=&quot;margin:0px;margin-top:4px;text-align:center;&quot;&gt;&lt;i&gt;&amp;lt;&amp;lt;interface&amp;gt;&amp;gt;&lt;/i&gt;&lt;br/&gt;&lt;b&gt;ToServerMessage&lt;/b&gt;&lt;/p&gt;&lt;hr size=&quot;1&quot;/&gt;&lt;p style=&quot;margin:0 0 0 4px;line-height:1.6;&quot;&gt;+ serverExecute(Controller): void&lt;/p&gt;" style="verticalAlign=top;align=left;overflow=fill;fontSize=14;fontFamily=Helvetica;html=1;rounded=0;shadow=0;comic=0;labelBackgroundColor=none;strokeWidth=1;" parent="1" vertex="1">
          <mxGeometry x="4726" y="5018" width="239" height="79" as="geometry" />
        </mxCell>
        <mxCell id="z04wBix4jSscRyTHLs09-10" value="&lt;p style=&quot;margin:0px;margin-top:4px;text-align:center;&quot;&gt;&lt;b&gt;SceneController&lt;/b&gt;&lt;/p&gt;&lt;hr size=&quot;1&quot;/&gt;&lt;p style=&quot;margin:0 0 0 4px;line-height:1.6;&quot;&gt;+ SceneController(): &lt;/p&gt;&lt;hr size=&quot;1&quot;/&gt;&lt;p style=&quot;margin:0 0 0 4px;line-height:1.6;&quot;&gt;~ sceneMap: Map&amp;lt;SceneName, Scene&amp;gt;&lt;br/&gt;~ stage: Stage&lt;br/&gt;- sceneControllerMap: Map&amp;lt;SceneName, SceneController&amp;gt;&lt;br/&gt;+ messageToSend: TextField&lt;br/&gt;~ controller: ClientController&lt;/p&gt;&lt;hr size=&quot;1&quot;/&gt;&lt;p style=&quot;margin:0 0 0 4px;line-height:1.6;&quot;&gt;+ getImageFromCard(CardFace): Image&lt;br/&gt;+ initialize(URL, ResourceBundle): void&lt;br/&gt;+ setAll(ClientController, Stage, Map&amp;lt;SceneName, Scene&amp;gt;, Map&amp;lt;SceneName, SceneController&amp;gt;): void&lt;br/&gt;+ getImageFromCard(Card, Face): Image&lt;br/&gt;+ sendMessages(): void&lt;br/&gt;+ setup(): void&lt;/p&gt;" style="verticalAlign=top;align=left;overflow=fill;fontSize=14;fontFamily=Helvetica;html=1;rounded=0;shadow=0;comic=0;labelBackgroundColor=none;strokeWidth=1;fillColor=#FFCCE6;" parent="1" vertex="1">
          <mxGeometry x="8940" y="5675" width="466" height="331" as="geometry" />
        </mxCell>
        <mxCell id="yHeuk7CS95yJwP5AfqtH-2" value="" style="endArrow=open;endFill=1;endSize=12;html=1;rounded=0;entryX=1.01;entryY=0.574;entryDx=0;entryDy=0;exitX=0.393;exitY=1.007;exitDx=0;exitDy=0;exitPerimeter=0;entryPerimeter=0;" edge="1" parent="1" source="node13" target="node39">
          <mxGeometry width="160" relative="1" as="geometry">
            <mxPoint x="1773" y="5260.7998046875" as="sourcePoint" />
            <mxPoint x="1985.8320000000003" y="4780.53" as="targetPoint" />
            <Array as="points">
              <mxPoint x="1983" y="5261" />
            </Array>
          </mxGeometry>
        </mxCell>
        <mxCell id="yHeuk7CS95yJwP5AfqtH-3" value="" style="endArrow=open;endFill=1;endSize=12;html=1;rounded=0;exitX=0.547;exitY=1.007;exitDx=0;exitDy=0;exitPerimeter=0;entryX=0;entryY=0.428;entryDx=0;entryDy=0;entryPerimeter=0;" edge="1" parent="1" source="node13" target="node19">
          <mxGeometry width="160" relative="1" as="geometry">
            <mxPoint x="2500" y="5290" as="sourcePoint" />
            <mxPoint x="2660" y="5290" as="targetPoint" />
            <Array as="points">
              <mxPoint x="2040" y="5440" />
            </Array>
          </mxGeometry>
        </mxCell>
        <mxCell id="yHeuk7CS95yJwP5AfqtH-4" value="" style="endArrow=open;endFill=1;endSize=12;html=1;rounded=0;entryX=-0.016;entryY=0.548;entryDx=0;entryDy=0;entryPerimeter=0;exitX=1;exitY=0.5;exitDx=0;exitDy=0;" edge="1" parent="1" source="node33" target="node13">
          <mxGeometry width="160" relative="1" as="geometry">
            <mxPoint x="1215" y="4524" as="sourcePoint" />
            <mxPoint x="1375" y="4524" as="targetPoint" />
            <Array as="points">
              <mxPoint x="1660" y="4383" />
              <mxPoint x="1660" y="4524" />
            </Array>
          </mxGeometry>
        </mxCell>
        <mxCell id="yHeuk7CS95yJwP5AfqtH-7" value="2" style="endArrow=open;html=1;endSize=12;startArrow=diamondThin;startSize=14;startFill=1;edgeStyle=orthogonalEdgeStyle;align=left;verticalAlign=bottom;rounded=0;" edge="1" parent="1">
          <mxGeometry x="-1" y="3" relative="1" as="geometry">
            <mxPoint x="2083.5" y="5968" as="sourcePoint" />
            <mxPoint x="2243.5" y="5968" as="targetPoint" />
          </mxGeometry>
        </mxCell>
        <mxCell id="yHeuk7CS95yJwP5AfqtH-9" value="" style="endArrow=open;endFill=1;endSize=12;html=1;rounded=0;entryX=0.75;entryY=0;entryDx=0;entryDy=0;" edge="1" parent="1" target="node41">
          <mxGeometry width="160" relative="1" as="geometry">
            <mxPoint x="2010" y="4770" as="sourcePoint" />
            <mxPoint x="1890" y="5880" as="targetPoint" />
          </mxGeometry>
        </mxCell>
        <mxCell id="yHeuk7CS95yJwP5AfqtH-10" value="1" style="endArrow=open;html=1;endSize=12;startArrow=diamondThin;startSize=14;startFill=1;edgeStyle=orthogonalEdgeStyle;align=left;verticalAlign=bottom;rounded=0;" edge="1" parent="1">
          <mxGeometry x="-1" y="3" relative="1" as="geometry">
            <mxPoint x="2676.5" y="5960" as="sourcePoint" />
            <mxPoint x="2836.5" y="5960" as="targetPoint" />
          </mxGeometry>
        </mxCell>
        <mxCell id="yHeuk7CS95yJwP5AfqtH-12" value="" style="endArrow=open;endFill=1;endSize=12;html=1;rounded=0;exitX=-0.01;exitY=0.846;exitDx=0;exitDy=0;exitPerimeter=0;" edge="1" parent="1" source="node19">
          <mxGeometry width="160" relative="1" as="geometry">
            <mxPoint x="2193.9980000000014" y="5576.397999999999" as="sourcePoint" />
            <mxPoint x="2040" y="5889" as="targetPoint" />
            <Array as="points">
              <mxPoint x="2040" y="5612" />
            </Array>
          </mxGeometry>
        </mxCell>
        <mxCell id="yHeuk7CS95yJwP5AfqtH-16" value="" style="endArrow=open;endFill=1;endSize=12;html=1;rounded=0;exitX=0.5;exitY=1;exitDx=0;exitDy=0;entryX=0;entryY=0.75;entryDx=0;entryDy=0;" edge="1" parent="1" source="node33" target="node41">
          <mxGeometry width="160" relative="1" as="geometry">
            <mxPoint x="1360" y="5150" as="sourcePoint" />
            <mxPoint x="1520" y="5150" as="targetPoint" />
            <Array as="points">
              <mxPoint x="727" y="5973" />
            </Array>
          </mxGeometry>
        </mxCell>
        <mxCell id="yHeuk7CS95yJwP5AfqtH-17" value="" style="endArrow=open;endFill=1;endSize=12;html=1;rounded=0;entryX=-0.009;entryY=0.388;entryDx=0;entryDy=0;entryPerimeter=0;exitX=0.999;exitY=0.583;exitDx=0;exitDy=0;exitPerimeter=0;" edge="1" parent="1" source="node19" target="node38">
          <mxGeometry width="160" relative="1" as="geometry">
            <mxPoint x="2340" y="5550" as="sourcePoint" />
            <mxPoint x="2500" y="5550" as="targetPoint" />
          </mxGeometry>
        </mxCell>
        <mxCell id="yHeuk7CS95yJwP5AfqtH-18" value="" style="endArrow=open;endFill=1;endSize=12;html=1;rounded=0;exitX=-0.019;exitY=0.459;exitDx=0;exitDy=0;entryX=1;entryY=0.5;entryDx=0;entryDy=0;exitPerimeter=0;" edge="1" parent="1" source="node21" target="node13">
          <mxGeometry width="160" relative="1" as="geometry">
            <mxPoint x="2330" y="5009.999999999999" as="sourcePoint" />
            <mxPoint x="2746" y="5010" as="targetPoint" />
          </mxGeometry>
        </mxCell>
        <mxCell id="yHeuk7CS95yJwP5AfqtH-19" value="" style="endArrow=open;endFill=1;endSize=12;html=1;rounded=0;exitX=1.005;exitY=0.413;exitDx=0;exitDy=0;exitPerimeter=0;entryX=-0.013;entryY=0.582;entryDx=0;entryDy=0;entryPerimeter=0;" edge="1" parent="1" source="node21" target="G22Vl-74bS2wPeGoAGa7-313">
          <mxGeometry width="160" relative="1" as="geometry">
            <mxPoint x="3260" y="4410" as="sourcePoint" />
            <mxPoint x="3420" y="4410" as="targetPoint" />
          </mxGeometry>
        </mxCell>
        <mxCell id="yHeuk7CS95yJwP5AfqtH-20" value="" style="endArrow=open;endFill=1;endSize=12;html=1;rounded=0;entryX=0.5;entryY=1;entryDx=0;entryDy=0;exitX=0.5;exitY=0;exitDx=0;exitDy=0;" edge="1" parent="1" source="node21" target="G22Vl-74bS2wPeGoAGa7-307">
          <mxGeometry width="160" relative="1" as="geometry">
            <mxPoint x="3040" y="4250" as="sourcePoint" />
            <mxPoint x="3200" y="4250" as="targetPoint" />
          </mxGeometry>
        </mxCell>
        <mxCell id="G22Vl-74bS2wPeGoAGa7-40" value="&lt;p style=&quot;margin:0px;margin-top:4px;text-align:center;&quot;&gt;&lt;i&gt;&amp;lt;&amp;lt;interface&amp;gt;&amp;gt;&lt;/i&gt;&lt;br/&gt;&lt;b&gt;CLIState&lt;/b&gt;&lt;/p&gt;&lt;hr size=&quot;1&quot;/&gt;&lt;p style=&quot;margin:0 0 0 4px;line-height:1.6;&quot;&gt;+ decode(String[]): void&lt;/p&gt;" style="verticalAlign=top;align=left;overflow=fill;fontSize=14;fontFamily=Helvetica;html=1;rounded=0;shadow=0;comic=0;labelBackgroundColor=none;strokeWidth=1;fillColor=#7EA6E0;" parent="1" vertex="1">
          <mxGeometry x="8830" y="5405.5" width="184" height="79" as="geometry" />
        </mxCell>
        <mxCell id="yHeuk7CS95yJwP5AfqtH-24" value="" style="endArrow=open;endFill=1;endSize=12;html=1;rounded=0;exitX=1.021;exitY=0.633;exitDx=0;exitDy=0;exitPerimeter=0;entryX=-0.001;entryY=0.228;entryDx=0;entryDy=0;entryPerimeter=0;" edge="1" parent="1" source="G22Vl-74bS2wPeGoAGa7-44" target="G22Vl-74bS2wPeGoAGa7-63">
          <mxGeometry width="160" relative="1" as="geometry">
            <mxPoint x="7390" y="5585.5" as="sourcePoint" />
            <mxPoint x="7550" y="5585.5" as="targetPoint" />
          </mxGeometry>
        </mxCell>
        <mxCell id="yHeuk7CS95yJwP5AfqtH-27" value="" style="endArrow=block;dashed=1;endFill=0;endSize=12;html=1;rounded=0;entryX=1.01;entryY=0.635;entryDx=0;entryDy=0;entryPerimeter=0;" edge="1" parent="1" target="G22Vl-74bS2wPeGoAGa7-63">
          <mxGeometry width="160" relative="1" as="geometry">
            <mxPoint x="8320" y="6135.5" as="sourcePoint" />
            <mxPoint x="8710" y="5755.5" as="targetPoint" />
          </mxGeometry>
        </mxCell>
        <mxCell id="yHeuk7CS95yJwP5AfqtH-28" value="" style="endArrow=block;dashed=1;endFill=0;endSize=12;html=1;rounded=0;entryX=1;entryY=0.25;entryDx=0;entryDy=0;" edge="1" parent="1" target="G22Vl-74bS2wPeGoAGa7-63">
          <mxGeometry width="160" relative="1" as="geometry">
            <mxPoint x="8310" y="5615.5" as="sourcePoint" />
            <mxPoint x="8710" y="5755.5" as="targetPoint" />
          </mxGeometry>
        </mxCell>
        <mxCell id="yHeuk7CS95yJwP5AfqtH-29" value="" style="endArrow=block;dashed=1;endFill=0;endSize=12;html=1;rounded=0;entryX=0.75;entryY=0;entryDx=0;entryDy=0;exitX=0.5;exitY=1;exitDx=0;exitDy=0;" edge="1" parent="1" source="node3" target="node33">
          <mxGeometry width="160" relative="1" as="geometry">
            <mxPoint x="720" y="4390" as="sourcePoint" />
            <mxPoint x="880" y="4390" as="targetPoint" />
            <Array as="points">
              <mxPoint x="1147" y="4240" />
              <mxPoint x="813" y="4240" />
            </Array>
          </mxGeometry>
        </mxCell>
        <mxCell id="yHeuk7CS95yJwP5AfqtH-30" value="" style="endArrow=block;dashed=1;endFill=0;endSize=12;html=1;rounded=0;entryX=0.5;entryY=0;entryDx=0;entryDy=0;" edge="1" parent="1" target="node33">
          <mxGeometry width="160" relative="1" as="geometry">
            <mxPoint x="727" y="4150" as="sourcePoint" />
            <mxPoint x="880" y="4390" as="targetPoint" />
          </mxGeometry>
        </mxCell>
        <mxCell id="yHeuk7CS95yJwP5AfqtH-31" value="" style="endArrow=block;dashed=1;endFill=0;endSize=12;html=1;rounded=0;entryX=0.25;entryY=0;entryDx=0;entryDy=0;exitX=0.5;exitY=1;exitDx=0;exitDy=0;" edge="1" parent="1" source="node25" target="node33">
          <mxGeometry width="160" relative="1" as="geometry">
            <mxPoint x="720" y="4390" as="sourcePoint" />
            <mxPoint x="880" y="4390" as="targetPoint" />
            <Array as="points">
              <mxPoint x="320" y="4240" />
              <mxPoint x="641" y="4240" />
            </Array>
          </mxGeometry>
        </mxCell>
        <mxCell id="yHeuk7CS95yJwP5AfqtH-32" value="" style="endArrow=open;endFill=1;endSize=12;html=1;rounded=0;entryX=0;entryY=0.5;entryDx=0;entryDy=0;exitX=1.004;exitY=0.815;exitDx=0;exitDy=0;exitPerimeter=0;" edge="1" parent="1" source="G22Vl-74bS2wPeGoAGa7-39" target="G22Vl-74bS2wPeGoAGa7-40">
          <mxGeometry width="160" relative="1" as="geometry">
            <mxPoint x="8590" y="5775.5" as="sourcePoint" />
            <mxPoint x="8750" y="5775.5" as="targetPoint" />
          </mxGeometry>
        </mxCell>
        <mxCell id="yHeuk7CS95yJwP5AfqtH-33" value="" style="endArrow=open;endFill=1;endSize=12;html=1;rounded=0;entryX=0.5;entryY=1;entryDx=0;entryDy=0;exitX=0.5;exitY=0;exitDx=0;exitDy=0;" edge="1" parent="1" source="G22Vl-74bS2wPeGoAGa7-44" target="G22Vl-74bS2wPeGoAGa7-58">
          <mxGeometry width="160" relative="1" as="geometry">
            <mxPoint x="6770" y="4355.5" as="sourcePoint" />
            <mxPoint x="6930" y="4355.5" as="targetPoint" />
            <Array as="points">
              <mxPoint x="7078" y="4165.5" />
              <mxPoint x="6922" y="4165.5" />
            </Array>
          </mxGeometry>
        </mxCell>
        <mxCell id="yHeuk7CS95yJwP5AfqtH-34" value="" style="endArrow=open;endFill=1;endSize=12;html=1;rounded=0;entryX=0.5;entryY=1;entryDx=0;entryDy=0;exitX=0.5;exitY=0;exitDx=0;exitDy=0;" edge="1" parent="1" source="G22Vl-74bS2wPeGoAGa7-44" target="G22Vl-74bS2wPeGoAGa7-48">
          <mxGeometry width="160" relative="1" as="geometry">
            <mxPoint x="6770" y="4355.5" as="sourcePoint" />
            <mxPoint x="6930" y="4355.5" as="targetPoint" />
            <Array as="points">
              <mxPoint x="7078" y="4165.5" />
              <mxPoint x="7328" y="4165.5" />
            </Array>
          </mxGeometry>
        </mxCell>
        <mxCell id="yHeuk7CS95yJwP5AfqtH-35" value="" style="endArrow=classic;startArrow=classic;html=1;rounded=0;entryX=-0.002;entryY=0.386;entryDx=0;entryDy=0;entryPerimeter=0;exitX=1;exitY=0.5;exitDx=0;exitDy=0;" edge="1" parent="1" source="G22Vl-74bS2wPeGoAGa7-51" target="G22Vl-74bS2wPeGoAGa7-44">
          <mxGeometry width="50" height="50" relative="1" as="geometry">
            <mxPoint x="6630" y="4845.5" as="sourcePoint" />
            <mxPoint x="6700" y="4685.5" as="targetPoint" />
          </mxGeometry>
        </mxCell>
        <mxCell id="yHeuk7CS95yJwP5AfqtH-36" value="" style="endArrow=open;endFill=1;endSize=12;html=1;rounded=0;entryX=0.5;entryY=1;entryDx=0;entryDy=0;" edge="1" parent="1" target="G22Vl-74bS2wPeGoAGa7-43">
          <mxGeometry width="160" relative="1" as="geometry">
            <mxPoint x="6200" y="5045.5" as="sourcePoint" />
            <mxPoint x="6420" y="5235.5" as="targetPoint" />
            <Array as="points">
              <mxPoint x="5945" y="5045.5" />
            </Array>
          </mxGeometry>
        </mxCell>
        <mxCell id="yHeuk7CS95yJwP5AfqtH-37" value="" style="endArrow=open;endFill=1;endSize=12;html=1;rounded=0;entryX=0.5;entryY=0;entryDx=0;entryDy=0;exitX=-0.011;exitY=0.416;exitDx=0;exitDy=0;exitPerimeter=0;" edge="1" parent="1" source="G22Vl-74bS2wPeGoAGa7-51" target="G22Vl-74bS2wPeGoAGa7-42">
          <mxGeometry width="160" relative="1" as="geometry">
            <mxPoint x="6130" y="5085.5" as="sourcePoint" />
            <mxPoint x="6290" y="5085.5" as="targetPoint" />
            <Array as="points">
              <mxPoint x="5945" y="5046.5" />
            </Array>
          </mxGeometry>
        </mxCell>
        <mxCell id="yHeuk7CS95yJwP5AfqtH-38" value="" style="endArrow=block;dashed=1;endFill=0;endSize=12;html=1;rounded=0;exitX=0.347;exitY=1.006;exitDx=0;exitDy=0;exitPerimeter=0;entryX=1;entryY=0.5;entryDx=0;entryDy=0;" edge="1" parent="1" source="G22Vl-74bS2wPeGoAGa7-43" target="G22Vl-74bS2wPeGoAGa7-41">
          <mxGeometry width="160" relative="1" as="geometry">
            <mxPoint x="5720" y="5055.5" as="sourcePoint" />
            <mxPoint x="5880" y="5055.5" as="targetPoint" />
            <Array as="points">
              <mxPoint x="5888" y="5065.5" />
            </Array>
          </mxGeometry>
        </mxCell>
        <mxCell id="yHeuk7CS95yJwP5AfqtH-39" value="" style="endArrow=block;dashed=1;endFill=0;endSize=12;html=1;rounded=0;entryX=1;entryY=0.75;entryDx=0;entryDy=0;" edge="1" parent="1" target="G22Vl-74bS2wPeGoAGa7-41">
          <mxGeometry width="160" relative="1" as="geometry">
            <mxPoint x="5890" y="5205.5" as="sourcePoint" />
            <mxPoint x="5880" y="5055.5" as="targetPoint" />
            <Array as="points">
              <mxPoint x="5890" y="5099.5" />
            </Array>
          </mxGeometry>
        </mxCell>
        <mxCell id="yHeuk7CS95yJwP5AfqtH-40" value="" style="endArrow=classic;startArrow=classic;html=1;rounded=0;entryX=0.5;entryY=1;entryDx=0;entryDy=0;exitX=0.465;exitY=0.018;exitDx=0;exitDy=0;exitPerimeter=0;" edge="1" parent="1" source="G22Vl-74bS2wPeGoAGa7-57" target="G22Vl-74bS2wPeGoAGa7-42">
          <mxGeometry width="50" height="50" relative="1" as="geometry">
            <mxPoint x="5510" y="5535.5" as="sourcePoint" />
            <mxPoint x="5560" y="5485.5" as="targetPoint" />
          </mxGeometry>
        </mxCell>
        <mxCell id="yHeuk7CS95yJwP5AfqtH-41" value="" style="endArrow=open;endFill=1;endSize=12;html=1;rounded=0;entryX=0.5;entryY=1;entryDx=0;entryDy=0;" edge="1" parent="1" target="G22Vl-74bS2wPeGoAGa7-47">
          <mxGeometry width="160" relative="1" as="geometry">
            <mxPoint x="5940" y="4625.5" as="sourcePoint" />
            <mxPoint x="5950" y="4665.5" as="targetPoint" />
            <Array as="points">
              <mxPoint x="5940" y="4525.5" />
              <mxPoint x="5757" y="4525.5" />
            </Array>
          </mxGeometry>
        </mxCell>
        <mxCell id="yHeuk7CS95yJwP5AfqtH-42" value="" style="endArrow=open;endFill=1;endSize=12;html=1;rounded=0;exitX=0.5;exitY=0;exitDx=0;exitDy=0;" edge="1" parent="1" source="G22Vl-74bS2wPeGoAGa7-43">
          <mxGeometry width="160" relative="1" as="geometry">
            <mxPoint x="5790" y="4665.5" as="sourcePoint" />
            <mxPoint x="6170" y="4475.5" as="targetPoint" />
            <Array as="points">
              <mxPoint x="5945" y="4525.5" />
              <mxPoint x="6170" y="4525.5" />
            </Array>
          </mxGeometry>
        </mxCell>
        <mxCell id="yHeuk7CS95yJwP5AfqtH-43" value="" style="endArrow=open;endFill=1;endSize=12;html=1;rounded=0;entryX=0;entryY=0.071;entryDx=0;entryDy=0;entryPerimeter=0;" edge="1" parent="1" target="G22Vl-74bS2wPeGoAGa7-44">
          <mxGeometry width="160" relative="1" as="geometry">
            <mxPoint x="6330" y="4405.5" as="sourcePoint" />
            <mxPoint x="6490" y="4405.5" as="targetPoint" />
          </mxGeometry>
        </mxCell>
        <mxCell id="yHeuk7CS95yJwP5AfqtH-45" value="" style="endArrow=open;endFill=1;endSize=12;html=1;rounded=0;entryX=-0.002;entryY=0.604;entryDx=0;entryDy=0;entryPerimeter=0;" edge="1" parent="1" target="G22Vl-74bS2wPeGoAGa7-44">
          <mxGeometry width="160" relative="1" as="geometry">
            <mxPoint x="6100" y="5525.5" as="sourcePoint" />
            <mxPoint x="6480" y="5275.5" as="targetPoint" />
          </mxGeometry>
        </mxCell>
        <mxCell id="yHeuk7CS95yJwP5AfqtH-46" value="" style="endArrow=open;endFill=1;endSize=12;html=1;rounded=0;entryX=-0.009;entryY=0.244;entryDx=0;entryDy=0;entryPerimeter=0;" edge="1" parent="1" target="G22Vl-74bS2wPeGoAGa7-44">
          <mxGeometry width="160" relative="1" as="geometry">
            <mxPoint x="6130" y="4765.5" as="sourcePoint" />
            <mxPoint x="6480" y="4945.5" as="targetPoint" />
          </mxGeometry>
        </mxCell>
        <mxCell id="yHeuk7CS95yJwP5AfqtH-57" value="" style="endArrow=open;endFill=1;endSize=12;html=1;rounded=0;exitX=1;exitY=0.5;exitDx=0;exitDy=0;entryX=1;entryY=0.5;entryDx=0;entryDy=0;" edge="1" parent="1" target="G22Vl-74bS2wPeGoAGa7-428">
          <mxGeometry width="160" relative="1" as="geometry">
            <mxPoint x="6810" y="6080" as="sourcePoint" />
            <mxPoint x="5090" y="5270" as="targetPoint" />
            <Array as="points">
              <mxPoint x="5080" y="6080" />
              <mxPoint x="5080" y="5058" />
            </Array>
          </mxGeometry>
        </mxCell>
        <mxCell id="yHeuk7CS95yJwP5AfqtH-58" value="" style="endArrow=open;endFill=1;endSize=12;html=1;rounded=0;exitX=0.5;exitY=1;exitDx=0;exitDy=0;entryX=1;entryY=0.75;entryDx=0;entryDy=0;" edge="1" parent="1" source="G22Vl-74bS2wPeGoAGa7-51" target="G22Vl-74bS2wPeGoAGa7-428">
          <mxGeometry width="160" relative="1" as="geometry">
            <mxPoint x="5770" y="5160" as="sourcePoint" />
            <mxPoint x="5930" y="5160" as="targetPoint" />
            <Array as="points">
              <mxPoint x="6440" y="6030" />
              <mxPoint x="5140" y="6030" />
              <mxPoint x="5140" y="5080" />
            </Array>
          </mxGeometry>
        </mxCell>
        <mxCell id="yHeuk7CS95yJwP5AfqtH-59" value="" style="endArrow=open;endFill=1;endSize=12;html=1;rounded=0;exitX=0;exitY=0.5;exitDx=0;exitDy=0;entryX=0;entryY=0.5;entryDx=0;entryDy=0;" edge="1" parent="1" source="G22Vl-74bS2wPeGoAGa7-428">
          <mxGeometry width="160" relative="1" as="geometry">
            <mxPoint x="4910" y="5440" as="sourcePoint" />
            <mxPoint x="3130" y="4720" as="targetPoint" />
            <Array as="points">
              <mxPoint x="4600" y="5058" />
              <mxPoint x="4600" y="4720" />
            </Array>
          </mxGeometry>
        </mxCell>
        <mxCell id="yHeuk7CS95yJwP5AfqtH-60" value="" style="endArrow=open;endFill=1;endSize=12;html=1;rounded=0;entryX=0.5;entryY=0;entryDx=0;entryDy=0;exitX=0.5;exitY=1;exitDx=0;exitDy=0;" edge="1" parent="1" source="G22Vl-74bS2wPeGoAGa7-428" target="G22Vl-74bS2wPeGoAGa7-426">
          <mxGeometry width="160" relative="1" as="geometry">
            <mxPoint x="4010" y="4760" as="sourcePoint" />
            <mxPoint x="4170" y="4760" as="targetPoint" />
          </mxGeometry>
        </mxCell>
        <mxCell id="yHeuk7CS95yJwP5AfqtH-61" value="" style="endArrow=open;endFill=1;endSize=12;html=1;rounded=0;entryX=0;entryY=0.5;entryDx=0;entryDy=0;exitX=1.012;exitY=0.863;exitDx=0;exitDy=0;exitPerimeter=0;" edge="1" parent="1" source="node21" target="G22Vl-74bS2wPeGoAGa7-426">
          <mxGeometry width="160" relative="1" as="geometry">
            <mxPoint x="3257.538311298077" y="5560" as="sourcePoint" />
            <mxPoint x="4830" y="5370" as="targetPoint" />
            <Array as="points">
              <mxPoint x="4550" y="4794" />
              <mxPoint x="4550" y="5284" />
            </Array>
          </mxGeometry>
        </mxCell>
        <mxCell id="yHeuk7CS95yJwP5AfqtH-62" value="" style="endArrow=open;endFill=1;endSize=12;html=1;rounded=0;exitX=1;exitY=0.5;exitDx=0;exitDy=0;entryX=0.006;entryY=0.641;entryDx=0;entryDy=0;entryPerimeter=0;" edge="1" parent="1" source="G22Vl-74bS2wPeGoAGa7-426" target="G22Vl-74bS2wPeGoAGa7-44">
          <mxGeometry width="160" relative="1" as="geometry">
            <mxPoint x="4500" y="5080" as="sourcePoint" />
            <mxPoint x="4660" y="5080" as="targetPoint" />
            <Array as="points">
              <mxPoint x="5050" y="5284" />
              <mxPoint x="5040" y="5990" />
              <mxPoint x="6720" y="6000" />
              <mxPoint x="6720" y="5604" />
            </Array>
          </mxGeometry>
        </mxCell>
        <mxCell id="yHeuk7CS95yJwP5AfqtH-67" value="" style="endArrow=open;endFill=1;endSize=12;html=1;rounded=0;entryX=0;entryY=0.75;entryDx=0;entryDy=0;" edge="1" parent="1" source="G22Vl-74bS2wPeGoAGa7-49" target="z04wBix4jSscRyTHLs09-10">
          <mxGeometry width="160" relative="1" as="geometry">
            <mxPoint x="9630" y="5670" as="sourcePoint" />
            <mxPoint x="9790" y="5670" as="targetPoint" />
            <Array as="points">
              <mxPoint x="8800" y="6090" />
              <mxPoint x="8800" y="5923" />
            </Array>
          </mxGeometry>
        </mxCell>
        <mxCell id="yHeuk7CS95yJwP5AfqtH-68" value="" style="endArrow=open;endFill=1;endSize=12;html=1;rounded=0;entryX=0;entryY=0.5;entryDx=0;entryDy=0;exitX=1;exitY=0.5;exitDx=0;exitDy=0;" edge="1" parent="1" source="z04wBix4jSscRyTHLs09-10" target="G22Vl-74bS2wPeGoAGa7-56">
          <mxGeometry width="160" relative="1" as="geometry">
            <mxPoint x="9630" y="6080" as="sourcePoint" />
            <mxPoint x="9790" y="6080" as="targetPoint" />
            <Array as="points">
              <mxPoint x="9560" y="5841" />
              <mxPoint x="9560" y="6099" />
            </Array>
          </mxGeometry>
        </mxCell>
        <mxCell id="yHeuk7CS95yJwP5AfqtH-71" value="" style="endArrow=block;startArrow=block;endFill=1;startFill=1;html=1;rounded=0;entryX=0;entryY=0.5;entryDx=0;entryDy=0;exitX=1;exitY=0.5;exitDx=0;exitDy=0;" edge="1" parent="1">
          <mxGeometry width="160" relative="1" as="geometry">
            <mxPoint x="9406" y="5830.5" as="sourcePoint" />
            <mxPoint x="9690" y="5691.5" as="targetPoint" />
            <Array as="points">
              <mxPoint x="9560" y="5831" />
            </Array>
          </mxGeometry>
        </mxCell>
        <mxCell id="yHeuk7CS95yJwP5AfqtH-72" value="" style="endArrow=open;endFill=1;endSize=12;html=1;rounded=0;exitX=1.029;exitY=0.107;exitDx=0;exitDy=0;exitPerimeter=0;" edge="1" parent="1" source="node21">
          <mxGeometry width="160" relative="1" as="geometry">
            <mxPoint x="4150" y="4160" as="sourcePoint" />
            <mxPoint x="4570" y="4242" as="targetPoint" />
          </mxGeometry>
        </mxCell>
        <mxCell id="yHeuk7CS95yJwP5AfqtH-73" value="" style="endArrow=open;endFill=1;endSize=12;html=1;rounded=0;exitX=0.75;exitY=1;exitDx=0;exitDy=0;entryX=0.5;entryY=0;entryDx=0;entryDy=0;" edge="1" parent="1" source="G22Vl-74bS2wPeGoAGa7-245" target="G22Vl-74bS2wPeGoAGa7-41">
          <mxGeometry width="160" relative="1" as="geometry">
            <mxPoint x="5270" y="4020" as="sourcePoint" />
            <mxPoint x="5430" y="4020" as="targetPoint" />
            <Array as="points">
              <mxPoint x="4636" y="3690" />
              <mxPoint x="5520" y="3690" />
            </Array>
          </mxGeometry>
        </mxCell>
      </root>
    </mxGraphModel>
  </diagram>
</mxfile>
